<svg width="128" height="128" viewBox="0 0 128 128" fill="none" xmlns="http://www.w3.org/2000/svg">
<g clip-path="url(#clip0_5_110)">
<path d="M58.617 2.67197L2.676 58.566C1.96086 59.2787 1.39345 60.1256 1.00629 61.0581C0.619125 61.9906 0.41983 62.9903 0.41983 64C0.41983 65.0096 0.619125 66.0094 1.00629 66.9418C1.39345 67.8743 1.96086 68.7212 2.676 69.434L58.617 125.328C59.3306 126.042 60.1779 126.609 61.1106 126.995C62.0432 127.382 63.0429 127.581 64.0525 127.581C65.0621 127.581 66.0618 127.382 66.9944 126.995C67.9271 126.609 68.7744 126.042 69.488 125.328L92.945 101.891C93.585 101.251 94.0927 100.491 94.439 99.6553C94.7854 98.8191 94.9637 97.923 94.9637 97.018C94.9637 96.113 94.7854 95.2168 94.439 94.3807C94.0927 93.5446 93.585 92.7849 92.945 92.145C91.6512 90.8522 89.897 90.126 88.068 90.126C86.239 90.126 84.4848 90.8522 83.191 92.145L65.411 109.91C64.661 110.66 63.523 110.66 62.777 109.91L18.102 65.277C17.355 64.527 17.355 63.391 18.102 62.645L62.777 18.008C63.523 17.262 64.66 17.262 65.41 18.008L83.191 35.773C84.4848 37.0657 86.239 37.7919 88.068 37.7919C89.897 37.7919 91.6512 37.0657 92.945 35.773C93.585 35.1331 94.0927 34.3734 94.439 33.5373C94.7854 32.7011 94.9637 31.805 94.9637 30.9C94.9637 29.995 94.7854 29.0988 94.439 28.2627C94.0927 27.4266 93.585 26.6669 92.945 26.027L69.492 2.59397C66.472 -0.344028 61.613 -0.320028 58.617 2.67197Z" fill="url(#paint0_linear_5_110)"/>
<path d="M58.617 2.67197L2.676 58.566C1.96086 59.2787 1.39345 60.1256 1.00629 61.0581C0.619125 61.9906 0.41983 62.9903 0.41983 64C0.41983 65.0096 0.619125 66.0094 1.00629 66.9418C1.39345 67.8743 1.96086 68.7212 2.676 69.434L58.617 125.328C59.3306 126.042 60.1779 126.609 61.1106 126.995C62.0432 127.382 63.0429 127.581 64.0525 127.581C65.0621 127.581 66.0618 127.382 66.9944 126.995C67.9271 126.609 68.7744 126.042 69.488 125.328L92.945 101.891C93.585 101.251 94.0927 100.491 94.439 99.6553C94.7854 98.8191 94.9637 97.923 94.9637 97.018C94.9637 96.113 94.7854 95.2168 94.439 94.3807C94.0927 93.5446 93.585 92.7849 92.945 92.145C91.6512 90.8522 89.897 90.126 88.068 90.126C86.239 90.126 84.4848 90.8522 83.191 92.145L65.411 109.91C64.661 110.66 63.523 110.66 62.777 109.91L18.102 65.277C17.355 64.527 17.355 63.391 18.102 62.645L62.777 18.008C64.641 16.402 67.68 13.148 72.148 12.387C75.465 11.82 79.094 13.067 83.031 16.121C80.398 13.488 75.887 8.98097 69.492 2.59397C66.472 -0.344028 61.613 -0.320028 58.617 2.67197Z" fill="url(#paint1_linear_5_110)"/>
<path d="M98.36 86.945C99.6538 88.2375 101.408 88.9634 103.237 88.9634C105.065 88.9634 106.819 88.2375 108.113 86.945L125.414 69.66C126.129 68.9477 126.696 68.1012 127.083 67.1692C127.47 66.2371 127.67 65.2378 127.67 64.2285C127.67 63.2193 127.47 62.2199 127.083 61.2879C126.696 60.3558 126.129 59.5093 125.414 58.797L107.961 41.418C106.664 40.1268 104.908 39.403 103.078 39.4052C101.247 39.4075 99.4929 40.1357 98.199 41.43C97.5582 42.0694 97.0498 42.829 96.7029 43.6652C96.356 44.5013 96.1774 45.3977 96.1774 46.303C96.1774 47.2083 96.356 48.1047 96.7029 48.9409C97.0498 49.777 97.5582 50.5366 98.199 51.176L109.989 62.953C110.166 63.1233 110.306 63.3275 110.402 63.5534C110.498 63.7792 110.548 64.0221 110.548 64.2675C110.548 64.5129 110.498 64.7558 110.402 64.9816C110.306 65.2075 110.166 65.4117 109.989 65.582L98.359 77.203C97.7183 77.8421 97.21 78.6013 96.8631 79.4372C96.5163 80.273 96.3378 81.1691 96.3378 82.074C96.3378 82.979 96.5163 83.875 96.8631 84.7109C97.21 85.5467 97.7193 86.3059 98.36 86.945Z" fill="url(#paint2_linear_5_110)"/>
<path fill-rule="evenodd" clip-rule="evenodd" d="M79.438 64.281C79.438 55.945 72.676 49.187 64.332 49.187C55.992 49.187 49.227 55.945 49.227 64.281C49.227 72.613 55.992 79.371 64.332 79.371C72.676 79.371 79.438 72.613 79.438 64.281Z" fill="url(#paint3_linear_5_110)"/>
</g>
<defs>
<linearGradient id="paint0_linear_5_110" x1="59.1292" y1="0.405971" x2="112.307" y2="32.9077" gradientUnits="userSpaceOnUse">
<stop stop-color="#4285EB"/>
<stop offset="1" stop-color="#2EC7FF"/>
</linearGradient>
<linearGradient id="paint1_linear_5_110" x1="66.2199" y1="0.405973" x2="39.9647" y2="136.162" gradientUnits="userSpaceOnUse">
<stop stop-color="#29CDFF"/>
<stop offset="0.379" stop-color="#148EFF"/>
<stop offset="1" stop-color="#0A60FF"/>
</linearGradient>
<linearGradient id="paint2_linear_5_110" x1="118.126" y1="32.9594" x2="83.9464" y2="86.3978" gradientUnits="userSpaceOnUse">
<stop stop-color="#FA816E"/>
<stop offset="0.415" stop-color="#F74A5C"/>
<stop offset="1" stop-color="#F51D2C"/>
</linearGradient>
<linearGradient id="paint3_linear_5_110" x1="69.8007" y1="38.4125" x2="58.4305" y2="83.8738" gradientUnits="userSpaceOnUse">
<stop stop-color="#FA8E7D"/>
<stop offset="0.513" stop-color="#F74A5C"/>
<stop offset="1" stop-color="#F51D2C"/>
</linearGradient>
<clipPath id="clip0_5_110">
<rect width="128" height="128" fill="white"/>
</clipPath>
</defs>
</svg>
