<svg width="40" height="40" viewBox="0 0 40 40" fill="none" xmlns="http://www.w3.org/2000/svg">
<g clip-path="url(#clip0_7_50)">
<path d="M36.25 0.9374H3.75C3.0126 0.929896 2.30233 1.21523 1.77506 1.73078C1.24778 2.24634 0.946566 2.95002 0.9375 3.6874V36.3187C0.948206 37.0549 1.25014 37.757 1.77724 38.2712C2.30434 38.7854 3.01367 39.0699 3.75 39.0624H36.25C36.9874 39.0682 37.6972 38.7819 38.2242 38.2661C38.7512 37.7502 39.0526 37.0467 39.0625 36.3093V3.67803C39.0493 2.9428 38.7465 2.24248 38.2199 1.72929C37.6932 1.2161 36.9853 0.931518 36.25 0.9374Z" fill="#0076B2"/>
<path d="M6.58125 15.228H12.2406V33.4374H6.58125V15.228ZM9.4125 6.16553C10.0616 6.16553 10.6961 6.35805 11.2358 6.71874C11.7755 7.07942 12.196 7.59207 12.4443 8.19182C12.6925 8.79157 12.7573 9.45148 12.6305 10.0881C12.5036 10.7247 12.1908 11.3093 11.7316 11.7681C11.2724 12.2268 10.6874 12.5391 10.0507 12.6654C9.41402 12.7916 8.75417 12.7262 8.15465 12.4774C7.55514 12.2285 7.04289 11.8075 6.68272 11.2675C6.32255 10.7275 6.13063 10.0928 6.13125 9.44365C6.13208 8.57395 6.47815 7.74016 7.09341 7.12548C7.70867 6.5108 8.5428 6.16553 9.4125 6.16553ZM15.7906 15.228H21.2156V17.728H21.2906C22.0469 16.2968 23.8906 14.7874 26.6438 14.7874C32.375 14.7749 33.4375 18.5468 33.4375 23.4374V33.4374H27.7781V24.578C27.7781 22.4687 27.7406 19.753 24.8375 19.753C21.9344 19.753 21.4406 22.053 21.4406 24.4405V33.4374H15.7906V15.228Z" fill="white"/>
</g>
<defs>
<clipPath id="clip0_7_50">
<rect width="40" height="40" fill="white"/>
</clipPath>
</defs>
</svg>
