<svg width="109" height="110" viewBox="0 0 109 110" fill="none" xmlns="http://www.w3.org/2000/svg">
<ellipse cx="54.5" cy="55" rx="54.5" ry="55" fill="#EA6B0F"/>
<path d="M54 66.25C51.775 66.25 49.5999 65.5902 47.7498 64.354C45.8998 63.1179 44.4578 61.3609 43.6064 59.3052C42.7549 57.2495 42.5321 54.9875 42.9662 52.8052C43.4003 50.623 44.4717 48.6184 46.045 47.0451C47.6184 45.4717 49.6229 44.4003 51.8052 43.9662C53.9875 43.5321 56.2495 43.7549 58.3052 44.6064C60.3609 45.4578 62.1179 46.8998 63.354 48.7498C64.5902 50.5999 65.25 52.775 65.25 55C65.2661 56.4818 64.986 57.952 64.4264 59.3241C63.8667 60.6963 63.0386 61.9429 61.9908 62.9908C60.9429 64.0386 59.6963 64.8667 58.3241 65.4264C56.952 65.986 55.4818 66.2661 54 66.25ZM54 47.5C53.0089 47.4774 52.0235 47.656 51.1034 48.025C50.1833 48.3939 49.3475 48.9455 48.6465 49.6465C47.9455 50.3475 47.3939 51.1833 47.0249 52.1034C46.656 53.0235 46.4774 54.0089 46.5 55C46.4774 55.9911 46.656 56.9765 47.0249 57.8966C47.3939 58.8167 47.9455 59.6525 48.6465 60.3535C49.3475 61.0545 50.1833 61.6061 51.1034 61.9751C52.0235 62.344 53.0089 62.5226 54 62.5C54.9911 62.5226 55.9765 62.344 56.8966 61.9751C57.8167 61.6061 58.6525 61.0545 59.3535 60.3535C60.0545 59.6525 60.6061 58.8167 60.9751 57.8966C61.344 56.9765 61.5226 55.9911 61.5 55C61.5226 54.0089 61.344 53.0235 60.9751 52.1034C60.6061 51.1833 60.0545 50.3475 59.3535 49.6465C58.6525 48.9455 57.8167 48.3939 56.8966 48.025C55.9765 47.656 54.9911 47.4774 54 47.5Z" fill="white"/>
<path d="M78.9469 45.7075L74.5219 38.0425C74.0887 37.291 73.4082 36.713 72.5964 36.4073C71.7846 36.1016 70.8919 36.0871 70.0706 36.3662L65.5069 37.9094C64.7204 37.3799 63.8985 36.905 63.0469 36.4881L62.1038 31.765C61.9338 30.9146 61.4743 30.1494 60.8035 29.5996C60.1328 29.0499 59.2922 28.7497 58.425 28.75H49.575C48.7078 28.7497 47.8672 29.0499 47.1965 29.5996C46.5257 30.1494 46.0662 30.9146 45.8963 31.765L44.9531 36.4881C44.092 36.9004 43.2606 37.3722 42.465 37.9L37.9275 36.3662C37.1067 36.0881 36.2149 36.1031 35.4039 36.4088C34.5929 36.7144 33.913 37.2918 33.48 38.0425L29.055 45.7075C28.6215 46.458 28.4614 47.3356 28.6019 48.1908C28.7424 49.0461 29.1748 49.8263 29.8256 50.3987L33.4463 53.5806C33.4144 54.0531 33.375 54.5219 33.375 55C33.375 55.4837 33.3938 55.9619 33.4275 56.4363L29.8275 59.6013C29.1761 60.1732 28.743 60.9532 28.6018 61.8085C28.4606 62.6638 28.6201 63.5415 29.0531 64.2925L33.4781 71.9575C33.911 72.7094 34.5914 73.2877 35.4032 73.5937C36.215 73.8998 37.1079 73.9146 37.9294 73.6356L42.4931 72.0906C43.2793 72.6211 44.1013 73.0966 44.9531 73.5138L45.8963 78.235C46.0662 79.0854 46.5257 79.8506 47.1965 80.4004C47.8672 80.9501 48.7078 81.2503 49.575 81.25H57.75V77.5H49.575L48.2438 70.8438C46.4022 70.1596 44.6927 69.1625 43.1906 67.8963L36.7275 70.0825L32.3025 62.4175L37.4119 57.9269C37.0623 55.9879 37.0579 54.0024 37.3988 52.0619L32.3025 47.5825L36.7275 39.9175L43.1531 42.0925C44.6659 40.8245 46.3887 39.8308 48.2438 39.1562L49.575 32.5H58.425L59.7563 39.1562C61.5978 39.8405 63.3073 40.8376 64.8094 42.1037L71.2725 39.9175L75.6975 47.5825L70.4513 52.18L72.9225 55L78.1725 50.3987C78.8239 49.8268 79.257 49.0468 79.3982 48.1915C79.5394 47.3362 79.3799 46.4585 78.9469 45.7075Z" fill="white"/>
<path d="M67.125 74.0875L62.2687 69.2313L59.625 71.875L67.125 79.375L80.25 66.25L77.6063 63.6063L67.125 74.0875Z" fill="white"/>
</svg>
