<svg width="209" height="61" viewBox="0 0 209 61" fill="none" xmlns="http://www.w3.org/2000/svg">
<path d="M2.75213 49V12.6364H11.5412V28.0128H12.0206L24.0412 12.6364H34.3928L21.5021 28.8651L34.6236 49H24.1122L15.0568 34.7067L11.5412 39.1456V49H2.75213ZM37.8596 49V12.6364H46.6486V27.2315H60.9775V12.6364H69.7488V49H60.9775V34.3871H46.6486V49H37.8596ZM83.1277 49H73.6816L85.9508 12.6364H97.6518L109.921 49H100.475L91.9345 21.7983H91.6504L83.1277 49ZM81.867 34.6889H101.611V41.3651H81.867V34.6889ZM113.836 49V12.6364H122.625V41.8622H137.753V49H113.836ZM151.092 12.6364V49H142.303V12.6364H151.092ZM156.61 49V12.6364H165.399V41.8622H180.526V49H156.61Z" fill="#EA6B0F"/>
<circle cx="199" cy="44" r="10" fill="#EA6B0F"/>
</svg>
