<svg width="128" height="128" viewBox="0 0 128 128" fill="none" xmlns="http://www.w3.org/2000/svg">
<g clip-path="url(#clip0_5_148)">
<path d="M86.6001 41.4C99.1001 53.9 99.1001 74.15 86.6001 86.65C80.3501 92.9 80.3501 103.05 86.6001 109.25C92.8501 115.5 103 115.5 109.25 109.25C134.25 84.25 134.25 43.75 109.25 18.75L86.6001 41.4Z" fill="#EA4335"/>
<path d="M109.2 18.75C84.2001 -6.25 43.7501 -6.25 18.7501 18.75C-6.24988 43.75 -6.24988 84.25 18.7501 109.25L41.4001 86.65C28.9001 74.15 28.9001 53.9 41.4001 41.4C53.9001 28.9 74.1501 28.9 86.6501 41.4C92.9001 47.65 103.05 47.65 109.3 41.4C115.45 35.15 115.45 25 109.2 18.75Z" fill="url(#paint0_linear_5_148)"/>
<path d="M109.2 109.25L86.5501 86.65C74.0501 99.15 53.8001 99.15 41.3001 86.65L18.6501 109.25C43.7501 134.25 84.2001 134.25 109.2 109.25Z" fill="#FBBC04"/>
<path d="M86.6001 86.65C92.8501 80.4 102.95 80.4 109.2 86.65C115.45 92.9 115.45 103.05 109.2 109.3C102.95 115.55 92.8501 115.55 86.6001 109.3C80.3501 103.05 80.3501 92.9 86.6001 86.65Z" fill="#EA4335"/>
<path d="M18.7501 86.65C25.0001 80.4 35.1001 80.4 41.3501 86.65C47.6001 92.9 47.6001 103.05 41.3501 109.3C35.1001 115.55 25.0001 115.55 18.7501 109.3C12.5001 103.05 12.5001 92.9 18.7501 86.65Z" fill="#34A853"/>
</g>
<defs>
<linearGradient id="paint0_linear_5_148" x1="0.00012207" y1="5462.5" x2="11389.9" y2="5462.5" gradientUnits="userSpaceOnUse">
<stop stop-color="#246FDB"/>
<stop offset="0.0552" stop-color="#2973DF"/>
<stop offset="0.2781" stop-color="#377DEB"/>
<stop offset="0.5491" stop-color="#3F83F2"/>
<stop offset="1" stop-color="#4285F4"/>
</linearGradient>
<clipPath id="clip0_5_148">
<rect width="128" height="128" fill="white"/>
</clipPath>
</defs>
</svg>
