<svg width="386" height="103" viewBox="0 0 386 103" fill="none" xmlns="http://www.w3.org/2000/svg">
<path d="M0.9375 17V1H6.34375C7.59896 1 8.625 1.22656 9.42188 1.67969C10.224 2.1276 10.8177 2.73438 11.2031 3.5C11.5885 4.26562 11.7813 5.11979 11.7813 6.0625C11.7813 7.00521 11.5885 7.86198 11.2031 8.63281C10.8229 9.40365 10.2344 10.0182 9.4375 10.4766C8.64063 10.9297 7.61979 11.1562 6.375 11.1562H2.5V9.4375H6.3125C7.17188 9.4375 7.86198 9.28906 8.38281 8.99219C8.90365 8.69531 9.28125 8.29427 9.51563 7.78906C9.75521 7.27865 9.875 6.70312 9.875 6.0625C9.875 5.42188 9.75521 4.84896 9.51563 4.34375C9.28125 3.83854 8.90104 3.44271 8.375 3.15625C7.84896 2.86458 7.15104 2.71875 6.28125 2.71875H2.875V17H0.9375ZM16.4961 1V17H14.6523V1H16.4961ZM24.9043 17.25C23.748 17.25 22.7507 16.9948 21.9121 16.4844C21.0788 15.9688 20.4355 15.25 19.9824 14.3281C19.5345 13.401 19.3105 12.3229 19.3105 11.0938C19.3105 9.86458 19.5345 8.78125 19.9824 7.84375C20.4355 6.90104 21.0658 6.16667 21.873 5.64062C22.6855 5.10937 23.6335 4.84375 24.7168 4.84375C25.3418 4.84375 25.959 4.94792 26.5684 5.15625C27.1777 5.36458 27.7324 5.70312 28.2324 6.17188C28.7324 6.63542 29.1309 7.25 29.4277 8.01562C29.7246 8.78125 29.873 9.72396 29.873 10.8437V11.625H20.623V10.0312H27.998C27.998 9.35417 27.8626 8.75 27.5918 8.21875C27.3262 7.6875 26.946 7.26823 26.4512 6.96094C25.9616 6.65365 25.3835 6.5 24.7168 6.5C23.9824 6.5 23.347 6.68229 22.8105 7.04687C22.2793 7.40625 21.8704 7.875 21.584 8.45312C21.2975 9.03125 21.1543 9.65104 21.1543 10.3125V11.375C21.1543 12.2813 21.3105 13.0495 21.623 13.6797C21.9408 14.3047 22.3809 14.7812 22.9434 15.1094C23.5059 15.4323 24.1595 15.5938 24.9043 15.5938C25.3887 15.5938 25.8262 15.526 26.2168 15.3906C26.6126 15.25 26.9538 15.0417 27.2402 14.7656C27.5267 14.4844 27.748 14.1354 27.9043 13.7187L29.6855 14.2188C29.498 14.8229 29.1829 15.3542 28.7402 15.8125C28.2975 16.2656 27.7507 16.6198 27.0996 16.875C26.4486 17.125 25.7168 17.25 24.9043 17.25ZM36.209 17.2813C35.4486 17.2813 34.7585 17.138 34.1387 16.8516C33.5189 16.5599 33.0267 16.1406 32.6621 15.5938C32.2975 15.0417 32.1152 14.375 32.1152 13.5937C32.1152 12.9062 32.2507 12.349 32.5215 11.9219C32.7923 11.4896 33.1543 11.151 33.6074 10.9062C34.0605 10.6615 34.5605 10.4792 35.1074 10.3594C35.6595 10.2344 36.2142 10.1354 36.7715 10.0625C37.5007 9.96875 38.0918 9.89844 38.5449 9.85156C39.0033 9.79948 39.3366 9.71354 39.5449 9.59375C39.7585 9.47396 39.8652 9.26562 39.8652 8.96875V8.90625C39.8652 8.13542 39.6543 7.53646 39.2324 7.10937C38.8158 6.68229 38.1829 6.46875 37.334 6.46875C36.4538 6.46875 35.7637 6.66146 35.2637 7.04687C34.7637 7.43229 34.4121 7.84375 34.209 8.28125L32.459 7.65625C32.7715 6.92708 33.1882 6.35937 33.709 5.95312C34.235 5.54167 34.8079 5.25521 35.4277 5.09375C36.0527 4.92708 36.6673 4.84375 37.2715 4.84375C37.6569 4.84375 38.0996 4.89062 38.5996 4.98437C39.1048 5.07292 39.5918 5.25781 40.0605 5.53906C40.5345 5.82031 40.9277 6.24479 41.2402 6.8125C41.5527 7.38021 41.709 8.14062 41.709 9.09375V17H39.8652V15.375H39.7715C39.6465 15.6354 39.4382 15.9141 39.1465 16.2109C38.8548 16.5078 38.4668 16.7604 37.9824 16.9687C37.498 17.1771 36.9069 17.2813 36.209 17.2813ZM36.4902 15.625C37.2194 15.625 37.834 15.4818 38.334 15.1953C38.8392 14.9089 39.2194 14.5391 39.4746 14.0859C39.735 13.6328 39.8652 13.1562 39.8652 12.6562V10.9687C39.7871 11.0625 39.6152 11.1484 39.3496 11.2266C39.0892 11.2995 38.7871 11.3646 38.4434 11.4219C38.1048 11.474 37.7741 11.5208 37.4512 11.5625C37.1335 11.599 36.8757 11.6302 36.6777 11.6562C36.1986 11.7187 35.7507 11.8203 35.334 11.9609C34.9225 12.0964 34.5892 12.3021 34.334 12.5781C34.084 12.849 33.959 13.2187 33.959 13.6875C33.959 14.3281 34.196 14.8125 34.6699 15.1406C35.1491 15.4635 35.7559 15.625 36.4902 15.625ZM53.5742 7.6875L51.918 8.15625C51.8138 7.88021 51.6602 7.61198 51.457 7.35156C51.2591 7.08594 50.9883 6.86719 50.6445 6.69531C50.3008 6.52344 49.8607 6.4375 49.3242 6.4375C48.5898 6.4375 47.9779 6.60677 47.4883 6.94531C47.0039 7.27865 46.7617 7.70312 46.7617 8.21875C46.7617 8.67708 46.9284 9.03906 47.2617 9.30469C47.5951 9.57031 48.1159 9.79167 48.8242 9.96875L50.6055 10.4063C51.6784 10.6667 52.4779 11.0651 53.0039 11.6016C53.5299 12.1328 53.793 12.8177 53.793 13.6562C53.793 14.3437 53.5951 14.9583 53.1992 15.5C52.8086 16.0417 52.2617 16.4688 51.5586 16.7813C50.8555 17.0938 50.0378 17.25 49.1055 17.25C47.8815 17.25 46.8685 16.9844 46.0664 16.4531C45.2643 15.9219 44.7565 15.1458 44.543 14.125L46.293 13.6875C46.4596 14.3333 46.7747 14.8177 47.2383 15.1406C47.707 15.4635 48.319 15.625 49.0742 15.625C49.9336 15.625 50.6159 15.4427 51.1211 15.0781C51.6315 14.7083 51.8867 14.2656 51.8867 13.75C51.8867 13.3333 51.7409 12.9844 51.4492 12.7031C51.1576 12.4167 50.7096 12.2031 50.1055 12.0625L48.1055 11.5937C47.0065 11.3333 46.1992 10.9297 45.6836 10.3828C45.1732 9.83073 44.918 9.14062 44.918 8.3125C44.918 7.63542 45.1081 7.03646 45.4883 6.51562C45.8737 5.99479 46.3971 5.58594 47.0586 5.28906C47.7253 4.99219 48.4805 4.84375 49.3242 4.84375C50.5117 4.84375 51.444 5.10417 52.1211 5.625C52.8034 6.14583 53.2878 6.83333 53.5742 7.6875ZM61.5996 17.25C60.4434 17.25 59.446 16.9948 58.6074 16.4844C57.7741 15.9688 57.1309 15.25 56.6777 14.3281C56.2298 13.401 56.0059 12.3229 56.0059 11.0938C56.0059 9.86458 56.2298 8.78125 56.6777 7.84375C57.1309 6.90104 57.7611 6.16667 58.5684 5.64062C59.3809 5.10937 60.3288 4.84375 61.4121 4.84375C62.0371 4.84375 62.6543 4.94792 63.2637 5.15625C63.873 5.36458 64.4277 5.70312 64.9277 6.17188C65.4277 6.63542 65.8262 7.25 66.123 8.01562C66.4199 8.78125 66.5684 9.72396 66.5684 10.8437V11.625H57.3184V10.0312H64.6934C64.6934 9.35417 64.5579 8.75 64.2871 8.21875C64.0215 7.6875 63.6413 7.26823 63.1465 6.96094C62.6569 6.65365 62.0788 6.5 61.4121 6.5C60.6777 6.5 60.0423 6.68229 59.5059 7.04687C58.9746 7.40625 58.5658 7.875 58.2793 8.45312C57.9928 9.03125 57.8496 9.65104 57.8496 10.3125V11.375C57.8496 12.2813 58.0059 13.0495 58.3184 13.6797C58.6361 14.3047 59.0762 14.7812 59.6387 15.1094C60.2012 15.4323 60.8548 15.5938 61.5996 15.5938C62.084 15.5938 62.5215 15.526 62.9121 15.3906C63.3079 15.25 63.6491 15.0417 63.9355 14.7656C64.222 14.4844 64.4434 14.1354 64.5996 13.7187L66.3809 14.2188C66.1934 14.8229 65.8783 15.3542 65.4355 15.8125C64.9928 16.2656 64.446 16.6198 63.7949 16.875C63.1439 17.125 62.4121 17.25 61.5996 17.25ZM75.8105 17V1H85.4043V2.71875H77.748V8.125H84.6855V9.84375H77.748V17H75.8105ZM88.4727 17V5H90.3164V17H88.4727ZM89.4102 3C89.0508 3 88.7409 2.8776 88.4805 2.63281C88.2253 2.38802 88.0977 2.09375 88.0977 1.75C88.0977 1.40625 88.2253 1.11198 88.4805 0.867187C88.7409 0.622396 89.0508 0.5 89.4102 0.5C89.7695 0.5 90.0768 0.622396 90.332 0.867187C90.5924 1.11198 90.7227 1.40625 90.7227 1.75C90.7227 2.09375 90.5924 2.38802 90.332 2.63281C90.0768 2.8776 89.7695 3 89.4102 3ZM95.5371 1V17H93.6934V1H95.5371ZM100.758 1V17H98.9141V1H100.758ZM124.072 9C124.072 10.6875 123.768 12.1458 123.158 13.375C122.549 14.6042 121.713 15.5521 120.65 16.2188C119.588 16.8854 118.374 17.2187 117.01 17.2187C115.645 17.2187 114.432 16.8854 113.369 16.2188C112.307 15.5521 111.471 14.6042 110.861 13.375C110.252 12.1458 109.947 10.6875 109.947 9C109.947 7.3125 110.252 5.85417 110.861 4.625C111.471 3.39583 112.307 2.44792 113.369 1.78125C114.432 1.11458 115.645 0.781249 117.01 0.781249C118.374 0.781249 119.588 1.11458 120.65 1.78125C121.713 2.44792 122.549 3.39583 123.158 4.625C123.768 5.85417 124.072 7.3125 124.072 9ZM122.197 9C122.197 7.61458 121.965 6.44531 121.502 5.49219C121.044 4.53906 120.421 3.81771 119.635 3.32812C118.854 2.83854 117.979 2.59375 117.01 2.59375C116.041 2.59375 115.163 2.83854 114.377 3.32812C113.596 3.81771 112.973 4.53906 112.51 5.49219C112.051 6.44531 111.822 7.61458 111.822 9C111.822 10.3854 112.051 11.5547 112.51 12.5078C112.973 13.4609 113.596 14.1823 114.377 14.6719C115.163 15.1615 116.041 15.4062 117.01 15.4062C117.979 15.4062 118.854 15.1615 119.635 14.6719C120.421 14.1823 121.044 13.4609 121.502 12.5078C121.965 11.5547 122.197 10.3854 122.197 9ZM134.643 12.0937V5H136.486V17H134.643V14.9687H134.518C134.236 15.5781 133.799 16.0964 133.205 16.5234C132.611 16.9453 131.861 17.1563 130.955 17.1563C130.205 17.1563 129.538 16.9922 128.955 16.6641C128.372 16.3307 127.913 15.8307 127.58 15.1641C127.247 14.4922 127.08 13.6458 127.08 12.625V5H128.924V12.5C128.924 13.375 129.169 14.0729 129.658 14.5938C130.153 15.1146 130.783 15.375 131.549 15.375C132.007 15.375 132.473 15.2578 132.947 15.0234C133.426 14.7891 133.827 14.4297 134.15 13.9453C134.479 13.4609 134.643 12.8437 134.643 12.0937ZM145.082 5V6.5625H138.863V5H145.082ZM140.676 2.125H142.52V13.5625C142.52 14.0833 142.595 14.474 142.746 14.7344C142.902 14.9896 143.1 15.1615 143.34 15.25C143.585 15.3333 143.842 15.375 144.113 15.375C144.316 15.375 144.483 15.3646 144.613 15.3437C144.743 15.3177 144.848 15.2969 144.926 15.2812L145.301 16.9375C145.176 16.9844 145.001 17.0313 144.777 17.0781C144.553 17.1302 144.27 17.1563 143.926 17.1563C143.405 17.1563 142.895 17.0443 142.395 16.8203C141.9 16.5964 141.488 16.2552 141.16 15.7969C140.837 15.3385 140.676 14.7604 140.676 14.0625V2.125ZM153.418 2.71875V1H165.418V2.71875H160.387V17H158.449V2.71875H153.418ZM170.002 9.78125V17H168.158V1H170.002V6.875H170.158C170.439 6.25521 170.861 5.76302 171.424 5.39844C171.992 5.02865 172.747 4.84375 173.689 4.84375C174.507 4.84375 175.223 5.00781 175.838 5.33594C176.452 5.65885 176.929 6.15625 177.268 6.82812C177.611 7.49479 177.783 8.34375 177.783 9.375V17H175.939V9.5C175.939 8.54687 175.692 7.8099 175.197 7.28906C174.708 6.76302 174.028 6.5 173.158 6.5C172.554 6.5 172.012 6.6276 171.533 6.88281C171.059 7.13802 170.684 7.51042 170.408 8C170.137 8.48958 170.002 9.08333 170.002 9.78125ZM186.188 17.25C185.031 17.25 184.034 16.9948 183.195 16.4844C182.362 15.9688 181.719 15.25 181.266 14.3281C180.818 13.401 180.594 12.3229 180.594 11.0938C180.594 9.86458 180.818 8.78125 181.266 7.84375C181.719 6.90104 182.349 6.16667 183.156 5.64062C183.969 5.10937 184.917 4.84375 186 4.84375C186.625 4.84375 187.242 4.94792 187.852 5.15625C188.461 5.36458 189.016 5.70312 189.516 6.17188C190.016 6.63542 190.414 7.25 190.711 8.01562C191.008 8.78125 191.156 9.72396 191.156 10.8437V11.625H181.906V10.0312H189.281C189.281 9.35417 189.146 8.75 188.875 8.21875C188.609 7.6875 188.229 7.26823 187.734 6.96094C187.245 6.65365 186.667 6.5 186 6.5C185.266 6.5 184.63 6.68229 184.094 7.04687C183.563 7.40625 183.154 7.875 182.867 8.45312C182.581 9.03125 182.438 9.65104 182.438 10.3125V11.375C182.438 12.2813 182.594 13.0495 182.906 13.6797C183.224 14.3047 183.664 14.7812 184.227 15.1094C184.789 15.4323 185.443 15.5938 186.188 15.5938C186.672 15.5938 187.109 15.526 187.5 15.3906C187.896 15.25 188.237 15.0417 188.523 14.7656C188.81 14.4844 189.031 14.1354 189.188 13.7187L190.969 14.2188C190.781 14.8229 190.466 15.3542 190.023 15.8125C189.581 16.2656 189.034 16.6198 188.383 16.875C187.732 17.125 187 17.25 186.188 17.25ZM200.398 17V1H209.992V2.71875H202.336V8.125H209.273V9.84375H202.336V17H200.398ZM217.055 17.25C215.971 17.25 215.021 16.9922 214.203 16.4766C213.391 15.9609 212.755 15.2396 212.297 14.3125C211.844 13.3854 211.617 12.3021 211.617 11.0625C211.617 9.8125 211.844 8.72135 212.297 7.78906C212.755 6.85677 213.391 6.13281 214.203 5.61719C215.021 5.10156 215.971 4.84375 217.055 4.84375C218.138 4.84375 219.086 5.10156 219.898 5.61719C220.716 6.13281 221.352 6.85677 221.805 7.78906C222.263 8.72135 222.492 9.8125 222.492 11.0625C222.492 12.3021 222.263 13.3854 221.805 14.3125C221.352 15.2396 220.716 15.9609 219.898 16.4766C219.086 16.9922 218.138 17.25 217.055 17.25ZM217.055 15.5938C217.878 15.5938 218.555 15.3828 219.086 14.9609C219.617 14.5391 220.01 13.9844 220.266 13.2969C220.521 12.6094 220.648 11.8646 220.648 11.0625C220.648 10.2604 220.521 9.51302 220.266 8.82031C220.01 8.1276 219.617 7.56771 219.086 7.14062C218.555 6.71354 217.878 6.5 217.055 6.5C216.232 6.5 215.555 6.71354 215.023 7.14062C214.492 7.56771 214.099 8.1276 213.844 8.82031C213.589 9.51302 213.461 10.2604 213.461 11.0625C213.461 11.8646 213.589 12.6094 213.844 13.2969C214.099 13.9844 214.492 14.5391 215.023 14.9609C215.555 15.3828 216.232 15.5938 217.055 15.5938ZM225.307 17V5H227.088V6.8125H227.213C227.432 6.21875 227.827 5.73698 228.4 5.36719C228.973 4.99739 229.619 4.8125 230.338 4.8125C230.473 4.8125 230.643 4.8151 230.846 4.82031C231.049 4.82552 231.202 4.83333 231.307 4.84375V6.71875C231.244 6.70312 231.101 6.67969 230.877 6.64844C230.658 6.61198 230.426 6.59375 230.182 6.59375C229.598 6.59375 229.077 6.71615 228.619 6.96094C228.166 7.20052 227.807 7.53385 227.541 7.96094C227.281 8.38281 227.15 8.86458 227.15 9.40625V17H225.307ZM233.492 17V5H235.273V6.875H235.43C235.68 6.23437 236.083 5.73698 236.641 5.38281C237.198 5.02344 237.867 4.84375 238.648 4.84375C239.44 4.84375 240.099 5.02344 240.625 5.38281C241.156 5.73698 241.57 6.23437 241.867 6.875H241.992C242.299 6.25521 242.76 5.76302 243.375 5.39844C243.99 5.02865 244.727 4.84375 245.586 4.84375C246.659 4.84375 247.536 5.17969 248.219 5.85156C248.901 6.51823 249.242 7.55729 249.242 8.96875V17H247.398V8.96875C247.398 8.08333 247.156 7.45052 246.672 7.07031C246.188 6.6901 245.617 6.5 244.961 6.5C244.117 6.5 243.464 6.75521 243 7.26562C242.536 7.77083 242.305 8.41146 242.305 9.1875V17H240.43V8.78125C240.43 8.09896 240.208 7.54948 239.766 7.13281C239.323 6.71094 238.753 6.5 238.055 6.5C237.576 6.5 237.128 6.6276 236.711 6.88281C236.299 7.13802 235.966 7.49219 235.711 7.94531C235.461 8.39323 235.336 8.91146 235.336 9.5V17H233.492ZM272.551 9C272.551 10.6875 272.246 12.1458 271.637 13.375C271.027 14.6042 270.191 15.5521 269.129 16.2188C268.066 16.8854 266.853 17.2187 265.488 17.2187C264.124 17.2187 262.91 16.8854 261.848 16.2188C260.785 15.5521 259.949 14.6042 259.34 13.375C258.73 12.1458 258.426 10.6875 258.426 9C258.426 7.3125 258.73 5.85417 259.34 4.625C259.949 3.39583 260.785 2.44792 261.848 1.78125C262.91 1.11458 264.124 0.781249 265.488 0.781249C266.853 0.781249 268.066 1.11458 269.129 1.78125C270.191 2.44792 271.027 3.39583 271.637 4.625C272.246 5.85417 272.551 7.3125 272.551 9ZM270.676 9C270.676 7.61458 270.444 6.44531 269.98 5.49219C269.522 4.53906 268.9 3.81771 268.113 3.32812C267.332 2.83854 266.457 2.59375 265.488 2.59375C264.52 2.59375 263.642 2.83854 262.855 3.32812C262.074 3.81771 261.452 4.53906 260.988 5.49219C260.53 6.44531 260.301 7.61458 260.301 9C260.301 10.3854 260.53 11.5547 260.988 12.5078C261.452 13.4609 262.074 14.1823 262.855 14.6719C263.642 15.1615 264.52 15.4062 265.488 15.4062C266.457 15.4062 267.332 15.1615 268.113 14.6719C268.9 14.1823 269.522 13.4609 269.98 12.5078C270.444 11.5547 270.676 10.3854 270.676 9ZM277.402 9.78125V17H275.559V5H277.34V6.875H277.496C277.777 6.26563 278.204 5.77604 278.777 5.40625C279.35 5.03125 280.09 4.84375 280.996 4.84375C281.809 4.84375 282.52 5.01042 283.129 5.34375C283.738 5.67188 284.212 6.17188 284.551 6.84375C284.889 7.51042 285.059 8.35417 285.059 9.375V17H283.215V9.5C283.215 8.55729 282.97 7.82292 282.48 7.29687C281.991 6.76562 281.319 6.5 280.465 6.5C279.876 6.5 279.35 6.6276 278.887 6.88281C278.428 7.13802 278.066 7.51042 277.801 8C277.535 8.48958 277.402 9.08333 277.402 9.78125ZM293.99 2.71875V1H305.99V2.71875H300.959V17H299.021V2.71875H293.99ZM310.574 9.78125V17H308.73V1H310.574V6.875H310.73C311.012 6.25521 311.434 5.76302 311.996 5.39844C312.564 5.02865 313.319 4.84375 314.262 4.84375C315.079 4.84375 315.796 5.00781 316.41 5.33594C317.025 5.65885 317.501 6.15625 317.84 6.82812C318.184 7.49479 318.355 8.34375 318.355 9.375V17H316.512V9.5C316.512 8.54687 316.264 7.8099 315.77 7.28906C315.28 6.76302 314.6 6.5 313.73 6.5C313.126 6.5 312.585 6.6276 312.105 6.88281C311.632 7.13802 311.257 7.51042 310.98 8C310.71 8.48958 310.574 9.08333 310.574 9.78125ZM321.729 17V5H323.572V17H321.729ZM322.666 3C322.307 3 321.997 2.8776 321.736 2.63281C321.481 2.38802 321.354 2.09375 321.354 1.75C321.354 1.40625 321.481 1.11198 321.736 0.867187C321.997 0.622396 322.307 0.5 322.666 0.5C323.025 0.5 323.333 0.622396 323.588 0.867187C323.848 1.11198 323.979 1.40625 323.979 1.75C323.979 2.09375 323.848 2.38802 323.588 2.63281C323.333 2.8776 323.025 3 322.666 3ZM335.449 7.6875L333.793 8.15625C333.689 7.88021 333.535 7.61198 333.332 7.35156C333.134 7.08594 332.863 6.86719 332.52 6.69531C332.176 6.52344 331.736 6.4375 331.199 6.4375C330.465 6.4375 329.853 6.60677 329.363 6.94531C328.879 7.27865 328.637 7.70312 328.637 8.21875C328.637 8.67708 328.803 9.03906 329.137 9.30469C329.47 9.57031 329.991 9.79167 330.699 9.96875L332.48 10.4063C333.553 10.6667 334.353 11.0651 334.879 11.6016C335.405 12.1328 335.668 12.8177 335.668 13.6562C335.668 14.3437 335.47 14.9583 335.074 15.5C334.684 16.0417 334.137 16.4688 333.434 16.7813C332.73 17.0938 331.913 17.25 330.98 17.25C329.757 17.25 328.743 16.9844 327.941 16.4531C327.139 15.9219 326.632 15.1458 326.418 14.125L328.168 13.6875C328.335 14.3333 328.65 14.8177 329.113 15.1406C329.582 15.4635 330.194 15.625 330.949 15.625C331.809 15.625 332.491 15.4427 332.996 15.0781C333.507 14.7083 333.762 14.2656 333.762 13.75C333.762 13.3333 333.616 12.9844 333.324 12.7031C333.033 12.4167 332.585 12.2031 331.98 12.0625L329.98 11.5937C328.882 11.3333 328.074 10.9297 327.559 10.3828C327.048 9.83073 326.793 9.14062 326.793 8.3125C326.793 7.63542 326.983 7.03646 327.363 6.51562C327.749 5.99479 328.272 5.58594 328.934 5.28906C329.6 4.99219 330.355 4.84375 331.199 4.84375C332.387 4.84375 333.319 5.10417 333.996 5.625C334.678 6.14583 335.163 6.83333 335.449 7.6875ZM9.6875 32C9.59375 31.2083 9.21354 30.5938 8.54688 30.1562C7.88021 29.7187 7.0625 29.5 6.09375 29.5C5.38542 29.5 4.76563 29.6146 4.23438 29.8437C3.70833 30.0729 3.29688 30.388 3 30.7891C2.70833 31.1901 2.5625 31.6458 2.5625 32.1562C2.5625 32.5833 2.66406 32.9505 2.86719 33.2578C3.07552 33.5599 3.34115 33.8125 3.66406 34.0156C3.98698 34.2135 4.32552 34.3776 4.67969 34.5078C5.03385 34.6328 5.35938 34.7344 5.65625 34.8125L7.28125 35.25C7.69792 35.3594 8.16146 35.5104 8.67188 35.7031C9.1875 35.8958 9.67969 36.1589 10.1484 36.4922C10.6224 36.8203 11.013 37.2422 11.3203 37.7578C11.6276 38.2734 11.7813 38.9062 11.7813 39.6562C11.7813 40.5208 11.5547 41.3021 11.1016 42C10.6536 42.6979 9.9974 43.2526 9.13281 43.6641C8.27344 44.0755 7.22917 44.2813 6 44.2813C4.85417 44.2813 3.86198 44.0964 3.02344 43.7266C2.1901 43.3568 1.53385 42.8411 1.05469 42.1797C0.580729 41.5182 0.3125 40.75 0.25 39.875H2.25C2.30208 40.4792 2.50521 40.9792 2.85938 41.375C3.21875 41.7656 3.67188 42.0573 4.21875 42.25C4.77083 42.4375 5.36458 42.5312 6 42.5312C6.73958 42.5312 7.40365 42.4115 7.99219 42.1719C8.58073 41.9271 9.04688 41.5885 9.39063 41.1562C9.73438 40.7187 9.90625 40.2083 9.90625 39.625C9.90625 39.0937 9.75781 38.6615 9.46094 38.3281C9.16406 37.9948 8.77344 37.724 8.28906 37.5156C7.80469 37.3073 7.28125 37.125 6.71875 36.9687L4.75 36.4062C3.5 36.0469 2.51042 35.5339 1.78125 34.8672C1.05208 34.2005 0.6875 33.3281 0.6875 32.25C0.6875 31.3542 0.929688 30.5729 1.41406 29.9062C1.90365 29.2344 2.5599 28.7135 3.38281 28.3437C4.21094 27.9687 5.13542 27.7812 6.15625 27.7812C7.1875 27.7812 8.10417 27.9661 8.90625 28.3359C9.70833 28.7005 10.3438 29.2005 10.8125 29.8359C11.2865 30.4714 11.5365 31.1927 11.5625 32H9.6875ZM19.748 44.25C18.5918 44.25 17.5944 43.9948 16.7559 43.4844C15.9225 42.9688 15.2793 42.25 14.8262 41.3281C14.3783 40.401 14.1543 39.3229 14.1543 38.0938C14.1543 36.8646 14.3783 35.7812 14.8262 34.8437C15.2793 33.901 15.9095 33.1667 16.7168 32.6406C17.5293 32.1094 18.4772 31.8438 19.5605 31.8438C20.1855 31.8438 20.8027 31.9479 21.4121 32.1562C22.0215 32.3646 22.5762 32.7031 23.0762 33.1719C23.5762 33.6354 23.9746 34.25 24.2715 35.0156C24.5684 35.7812 24.7168 36.724 24.7168 37.8437V38.625H15.4668V37.0312H22.8418C22.8418 36.3542 22.7064 35.75 22.4355 35.2187C22.1699 34.6875 21.7897 34.2682 21.2949 33.9609C20.8053 33.6536 20.2272 33.5 19.5605 33.5C18.8262 33.5 18.1908 33.6823 17.6543 34.0469C17.123 34.4062 16.7142 34.875 16.4277 35.4531C16.1413 36.0312 15.998 36.651 15.998 37.3125V38.375C15.998 39.2813 16.1543 40.0495 16.4668 40.6797C16.7845 41.3047 17.2246 41.7812 17.7871 42.1094C18.3496 42.4323 19.0033 42.5938 19.748 42.5938C20.2324 42.5938 20.6699 42.526 21.0605 42.3906C21.4564 42.25 21.7975 42.0417 22.084 41.7656C22.3704 41.4844 22.5918 41.1354 22.748 40.7187L24.5293 41.2188C24.3418 41.8229 24.0267 42.3542 23.584 42.8125C23.1413 43.2656 22.5944 43.6198 21.9434 43.875C21.2923 44.125 20.5605 44.25 19.748 44.25ZM32.3965 44.25C31.2715 44.25 30.3027 43.9844 29.4902 43.4531C28.6777 42.9219 28.0527 42.1901 27.6152 41.2578C27.1777 40.3255 26.959 39.2604 26.959 38.0625C26.959 36.8437 27.1829 35.7682 27.6309 34.8359C28.084 33.8984 28.7142 33.1667 29.5215 32.6406C30.334 32.1094 31.2819 31.8438 32.3652 31.8438C33.209 31.8438 33.9694 32 34.6465 32.3125C35.3236 32.625 35.8783 33.0625 36.3105 33.625C36.7428 34.1875 37.0111 34.8437 37.1152 35.5937H35.2715C35.1309 35.0469 34.8184 34.5625 34.334 34.1406C33.8548 33.7135 33.209 33.5 32.3965 33.5C31.6777 33.5 31.0475 33.6875 30.5059 34.0625C29.9694 34.4323 29.5501 34.9557 29.248 35.6328C28.9512 36.3047 28.8027 37.0937 28.8027 38C28.8027 38.9271 28.9486 39.7344 29.2402 40.4219C29.5371 41.1094 29.9538 41.6432 30.4902 42.0234C31.0319 42.4036 31.6673 42.5938 32.3965 42.5938C32.8757 42.5938 33.3105 42.5104 33.7012 42.3437C34.0918 42.1771 34.4225 41.9375 34.6934 41.625C34.9642 41.3125 35.1569 40.9375 35.2715 40.5H37.1152C37.0111 41.2083 36.7533 41.8464 36.3418 42.4141C35.9355 42.9766 35.3965 43.4245 34.7246 43.7578C34.0579 44.0859 33.2819 44.25 32.3965 44.25ZM45.0293 32V33.5625H38.8105V32H45.0293ZM40.623 29.125H42.4668V40.5625C42.4668 41.0833 42.5423 41.474 42.6934 41.7344C42.8496 41.9896 43.0475 42.1615 43.2871 42.25C43.5319 42.3333 43.7897 42.375 44.0605 42.375C44.2637 42.375 44.4303 42.3646 44.5605 42.3437C44.6908 42.3177 44.7949 42.2969 44.873 42.2812L45.248 43.9375C45.123 43.9844 44.9486 44.0313 44.7246 44.0781C44.5007 44.1302 44.2168 44.1563 43.873 44.1563C43.3522 44.1563 42.8418 44.0443 42.3418 43.8203C41.847 43.5964 41.4355 43.2552 41.1074 42.7969C40.7845 42.3385 40.623 41.7604 40.623 41.0625V29.125ZM47.8027 44V32H49.6465V44H47.8027ZM48.7402 30C48.3809 30 48.071 29.8776 47.8105 29.6328C47.5553 29.388 47.4277 29.0938 47.4277 28.75C47.4277 28.4063 47.5553 28.112 47.8105 27.8672C48.071 27.6224 48.3809 27.5 48.7402 27.5C49.0996 27.5 49.4069 27.6224 49.6621 27.8672C49.9225 28.112 50.0527 28.4063 50.0527 28.75C50.0527 29.0938 49.9225 29.388 49.6621 29.6328C49.4069 29.8776 49.0996 30 48.7402 30ZM57.8984 44.25C56.8151 44.25 55.8646 43.9922 55.0469 43.4766C54.2344 42.9609 53.599 42.2396 53.1406 41.3125C52.6875 40.3854 52.4609 39.3021 52.4609 38.0625C52.4609 36.8125 52.6875 35.7214 53.1406 34.7891C53.599 33.8568 54.2344 33.1328 55.0469 32.6172C55.8646 32.1016 56.8151 31.8438 57.8984 31.8438C58.9818 31.8438 59.9297 32.1016 60.7422 32.6172C61.5599 33.1328 62.1953 33.8568 62.6484 34.7891C63.1068 35.7214 63.3359 36.8125 63.3359 38.0625C63.3359 39.3021 63.1068 40.3854 62.6484 41.3125C62.1953 42.2396 61.5599 42.9609 60.7422 43.4766C59.9297 43.9922 58.9818 44.25 57.8984 44.25ZM57.8984 42.5938C58.7214 42.5938 59.3984 42.3828 59.9297 41.9609C60.4609 41.5391 60.8542 40.9844 61.1094 40.2969C61.3646 39.6094 61.4922 38.8646 61.4922 38.0625C61.4922 37.2604 61.3646 36.513 61.1094 35.8203C60.8542 35.1276 60.4609 34.5677 59.9297 34.1406C59.3984 33.7135 58.7214 33.5 57.8984 33.5C57.0755 33.5 56.3984 33.7135 55.8672 34.1406C55.3359 34.5677 54.9427 35.1276 54.6875 35.8203C54.4323 36.513 54.3047 37.2604 54.3047 38.0625C54.3047 38.8646 54.4323 39.6094 54.6875 40.2969C54.9427 40.9844 55.3359 41.5391 55.8672 41.9609C56.3984 42.3828 57.0755 42.5938 57.8984 42.5938ZM67.9941 36.7812V44H66.1504V32H67.9316V33.875H68.0879C68.3691 33.2656 68.7962 32.776 69.3691 32.4063C69.9421 32.0313 70.6816 31.8438 71.5879 31.8438C72.4004 31.8438 73.1113 32.0104 73.7207 32.3437C74.3301 32.6719 74.804 33.1719 75.1426 33.8437C75.4811 34.5104 75.6504 35.3542 75.6504 36.375V44H73.8066V36.5C73.8066 35.5573 73.5618 34.8229 73.0723 34.2969C72.5827 33.7656 71.9108 33.5 71.0566 33.5C70.4681 33.5 69.9421 33.6276 69.4785 33.8828C69.0202 34.138 68.6582 34.5104 68.3926 35C68.127 35.4896 67.9941 36.0833 67.9941 36.7812ZM84.582 29.7187V28H96.582V29.7187H91.5508V44H89.6133V29.7187H84.582ZM102.457 44.25C101.374 44.25 100.423 43.9922 99.6055 43.4766C98.793 42.9609 98.1576 42.2396 97.6992 41.3125C97.2461 40.3854 97.0195 39.3021 97.0195 38.0625C97.0195 36.8125 97.2461 35.7214 97.6992 34.7891C98.1576 33.8568 98.793 33.1328 99.6055 32.6172C100.423 32.1016 101.374 31.8438 102.457 31.8438C103.54 31.8438 104.488 32.1016 105.301 32.6172C106.118 33.1328 106.754 33.8568 107.207 34.7891C107.665 35.7214 107.895 36.8125 107.895 38.0625C107.895 39.3021 107.665 40.3854 107.207 41.3125C106.754 42.2396 106.118 42.9609 105.301 43.4766C104.488 43.9922 103.54 44.25 102.457 44.25ZM102.457 42.5938C103.28 42.5938 103.957 42.3828 104.488 41.9609C105.02 41.5391 105.413 40.9844 105.668 40.2969C105.923 39.6094 106.051 38.8646 106.051 38.0625C106.051 37.2604 105.923 36.513 105.668 35.8203C105.413 35.1276 105.02 34.5677 104.488 34.1406C103.957 33.7135 103.28 33.5 102.457 33.5C101.634 33.5 100.957 33.7135 100.426 34.1406C99.8945 34.5677 99.5013 35.1276 99.2461 35.8203C98.9909 36.513 98.8633 37.2604 98.8633 38.0625C98.8633 38.8646 98.9909 39.6094 99.2461 40.2969C99.5013 40.9844 99.8945 41.5391 100.426 41.9609C100.957 42.3828 101.634 42.5938 102.457 42.5938ZM130.021 33H128.084C127.969 32.4427 127.769 31.9531 127.482 31.5312C127.201 31.1094 126.857 30.7552 126.451 30.4688C126.05 30.1771 125.605 29.9583 125.115 29.8125C124.626 29.6667 124.115 29.5937 123.584 29.5937C122.615 29.5937 121.738 29.8385 120.951 30.3281C120.17 30.8177 119.548 31.5391 119.084 32.4922C118.626 33.4453 118.396 34.6146 118.396 36C118.396 37.3854 118.626 38.5547 119.084 39.5078C119.548 40.4609 120.17 41.1823 120.951 41.6719C121.738 42.1615 122.615 42.4062 123.584 42.4062C124.115 42.4062 124.626 42.3333 125.115 42.1875C125.605 42.0417 126.05 41.8255 126.451 41.5391C126.857 41.2474 127.201 40.8906 127.482 40.4687C127.769 40.0417 127.969 39.5521 128.084 39H130.021C129.876 39.8177 129.61 40.5495 129.225 41.1953C128.839 41.8411 128.36 42.3906 127.787 42.8437C127.214 43.2917 126.571 43.6328 125.857 43.8672C125.149 44.1016 124.391 44.2187 123.584 44.2187C122.219 44.2187 121.006 43.8854 119.943 43.2188C118.881 42.5521 118.045 41.6042 117.436 40.375C116.826 39.1458 116.521 37.6875 116.521 36C116.521 34.3125 116.826 32.8542 117.436 31.625C118.045 30.3958 118.881 29.4479 119.943 28.7812C121.006 28.1146 122.219 27.7812 123.584 27.7812C124.391 27.7812 125.149 27.8984 125.857 28.1328C126.571 28.3672 127.214 28.7109 127.787 29.1641C128.36 29.612 128.839 30.1589 129.225 30.8047C129.61 31.4453 129.876 32.1771 130.021 33ZM137.777 44.25C136.694 44.25 135.743 43.9922 134.926 43.4766C134.113 42.9609 133.478 42.2396 133.02 41.3125C132.566 40.3854 132.34 39.3021 132.34 38.0625C132.34 36.8125 132.566 35.7214 133.02 34.7891C133.478 33.8568 134.113 33.1328 134.926 32.6172C135.743 32.1016 136.694 31.8438 137.777 31.8438C138.861 31.8438 139.809 32.1016 140.621 32.6172C141.439 33.1328 142.074 33.8568 142.527 34.7891C142.986 35.7214 143.215 36.8125 143.215 38.0625C143.215 39.3021 142.986 40.3854 142.527 41.3125C142.074 42.2396 141.439 42.9609 140.621 43.4766C139.809 43.9922 138.861 44.25 137.777 44.25ZM137.777 42.5938C138.6 42.5938 139.277 42.3828 139.809 41.9609C140.34 41.5391 140.733 40.9844 140.988 40.2969C141.243 39.6094 141.371 38.8646 141.371 38.0625C141.371 37.2604 141.243 36.513 140.988 35.8203C140.733 35.1276 140.34 34.5677 139.809 34.1406C139.277 33.7135 138.6 33.5 137.777 33.5C136.954 33.5 136.277 33.7135 135.746 34.1406C135.215 34.5677 134.822 35.1276 134.566 35.8203C134.311 36.513 134.184 37.2604 134.184 38.0625C134.184 38.8646 134.311 39.6094 134.566 40.2969C134.822 40.9844 135.215 41.5391 135.746 41.9609C136.277 42.3828 136.954 42.5938 137.777 42.5938ZM147.873 36.7812V44H146.029V32H147.811V33.875H147.967C148.248 33.2656 148.675 32.776 149.248 32.4063C149.821 32.0313 150.561 31.8438 151.467 31.8438C152.279 31.8438 152.99 32.0104 153.6 32.3437C154.209 32.6719 154.683 33.1719 155.021 33.8437C155.36 34.5104 155.529 35.3542 155.529 36.375V44H153.686V36.5C153.686 35.5573 153.441 34.8229 152.951 34.2969C152.462 33.7656 151.79 33.5 150.936 33.5C150.347 33.5 149.821 33.6276 149.357 33.8828C148.899 34.138 148.537 34.5104 148.271 35C148.006 35.4896 147.873 36.0833 147.873 36.7812ZM164.117 32V33.5625H157.898V32H164.117ZM159.711 29.125H161.555V40.5625C161.555 41.0833 161.63 41.474 161.781 41.7344C161.938 41.9896 162.135 42.1615 162.375 42.25C162.62 42.3333 162.878 42.375 163.148 42.375C163.352 42.375 163.518 42.3646 163.648 42.3437C163.779 42.3177 163.883 42.2969 163.961 42.2812L164.336 43.9375C164.211 43.9844 164.036 44.0313 163.813 44.0781C163.589 44.1302 163.305 44.1563 162.961 44.1563C162.44 44.1563 161.93 44.0443 161.43 43.8203C160.935 43.5964 160.523 43.2552 160.195 42.7969C159.872 42.3385 159.711 41.7604 159.711 41.0625V29.125ZM170.422 44.2813C169.661 44.2813 168.971 44.138 168.352 43.8516C167.732 43.5599 167.24 43.1406 166.875 42.5938C166.51 42.0417 166.328 41.375 166.328 40.5937C166.328 39.9062 166.464 39.349 166.734 38.9219C167.005 38.4896 167.367 38.151 167.82 37.9062C168.273 37.6615 168.773 37.4792 169.32 37.3594C169.872 37.2344 170.427 37.1354 170.984 37.0625C171.714 36.9687 172.305 36.8984 172.758 36.8516C173.216 36.7995 173.549 36.7135 173.758 36.5937C173.971 36.474 174.078 36.2656 174.078 35.9687V35.9062C174.078 35.1354 173.867 34.5365 173.445 34.1094C173.029 33.6823 172.396 33.4687 171.547 33.4687C170.667 33.4687 169.977 33.6615 169.477 34.0469C168.977 34.4323 168.625 34.8437 168.422 35.2812L166.672 34.6562C166.984 33.9271 167.401 33.3594 167.922 32.9531C168.448 32.5417 169.021 32.2552 169.641 32.0937C170.266 31.9271 170.88 31.8438 171.484 31.8438C171.87 31.8438 172.313 31.8906 172.813 31.9844C173.318 32.0729 173.805 32.2578 174.273 32.5391C174.747 32.8203 175.141 33.2448 175.453 33.8125C175.766 34.3802 175.922 35.1406 175.922 36.0938V44H174.078V42.375H173.984C173.859 42.6354 173.651 42.9141 173.359 43.2109C173.068 43.5078 172.68 43.7604 172.195 43.9687C171.711 44.1771 171.12 44.2813 170.422 44.2813ZM170.703 42.625C171.432 42.625 172.047 42.4818 172.547 42.1953C173.052 41.9089 173.432 41.5391 173.687 41.0859C173.948 40.6328 174.078 40.1562 174.078 39.6562V37.9687C174 38.0625 173.828 38.1484 173.563 38.2266C173.302 38.2995 173 38.3646 172.656 38.4219C172.318 38.474 171.987 38.5208 171.664 38.5625C171.346 38.599 171.089 38.6302 170.891 38.6562C170.411 38.7187 169.964 38.8203 169.547 38.9609C169.135 39.0964 168.802 39.3021 168.547 39.5781C168.297 39.849 168.172 40.2187 168.172 40.6875C168.172 41.3281 168.409 41.8125 168.883 42.1406C169.362 42.4635 169.969 42.625 170.703 42.625ZM184.162 44.25C183.037 44.25 182.068 43.9844 181.256 43.4531C180.443 42.9219 179.818 42.1901 179.381 41.2578C178.943 40.3255 178.725 39.2604 178.725 38.0625C178.725 36.8437 178.949 35.7682 179.396 34.8359C179.85 33.8984 180.48 33.1667 181.287 32.6406C182.1 32.1094 183.048 31.8438 184.131 31.8438C184.975 31.8438 185.735 32 186.412 32.3125C187.089 32.625 187.644 33.0625 188.076 33.625C188.508 34.1875 188.777 34.8437 188.881 35.5937H187.037C186.896 35.0469 186.584 34.5625 186.1 34.1406C185.62 33.7135 184.975 33.5 184.162 33.5C183.443 33.5 182.813 33.6875 182.271 34.0625C181.735 34.4323 181.316 34.9557 181.014 35.6328C180.717 36.3047 180.568 37.0937 180.568 38C180.568 38.9271 180.714 39.7344 181.006 40.4219C181.303 41.1094 181.719 41.6432 182.256 42.0234C182.798 42.4036 183.433 42.5938 184.162 42.5938C184.641 42.5938 185.076 42.5104 185.467 42.3437C185.857 42.1771 186.188 41.9375 186.459 41.625C186.73 41.3125 186.923 40.9375 187.037 40.5H188.881C188.777 41.2083 188.519 41.8464 188.107 42.4141C187.701 42.9766 187.162 43.4245 186.49 43.7578C185.824 44.0859 185.048 44.25 184.162 44.25ZM196.795 32V33.5625H190.576V32H196.795ZM192.389 29.125H194.232V40.5625C194.232 41.0833 194.308 41.474 194.459 41.7344C194.615 41.9896 194.813 42.1615 195.053 42.25C195.298 42.3333 195.555 42.375 195.826 42.375C196.029 42.375 196.196 42.3646 196.326 42.3437C196.456 42.3177 196.561 42.2969 196.639 42.2812L197.014 43.9375C196.889 43.9844 196.714 44.0313 196.49 44.0781C196.266 44.1302 195.982 44.1563 195.639 44.1563C195.118 44.1563 194.607 44.0443 194.107 43.8203C193.613 43.5964 193.201 43.2552 192.873 42.7969C192.55 42.3385 192.389 41.7604 192.389 41.0625V29.125ZM208.912 44L204.537 28H206.506L209.85 41.0312H210.006L213.412 28H215.6L219.006 41.0312H219.162L222.506 28H224.475L220.1 44H218.1L214.568 31.25H214.443L210.912 44H208.912ZM226.639 44V32H228.482V44H226.639ZM227.576 30C227.217 30 226.907 29.8776 226.646 29.6328C226.391 29.388 226.264 29.0938 226.264 28.75C226.264 28.4063 226.391 28.112 226.646 27.8672C226.907 27.6224 227.217 27.5 227.576 27.5C227.936 27.5 228.243 27.6224 228.498 27.8672C228.758 28.112 228.889 28.4063 228.889 28.75C228.889 29.0938 228.758 29.388 228.498 29.6328C228.243 29.8776 227.936 30 227.576 30ZM237.078 32V33.5625H230.859V32H237.078ZM232.672 29.125H234.516V40.5625C234.516 41.0833 234.591 41.474 234.742 41.7344C234.898 41.9896 235.096 42.1615 235.336 42.25C235.581 42.3333 235.839 42.375 236.109 42.375C236.313 42.375 236.479 42.3646 236.609 42.3437C236.74 42.3177 236.844 42.2969 236.922 42.2812L237.297 43.9375C237.172 43.9844 236.997 44.0313 236.773 44.0781C236.549 44.1302 236.266 44.1563 235.922 44.1563C235.401 44.1563 234.891 44.0443 234.391 43.8203C233.896 43.5964 233.484 43.2552 233.156 42.7969C232.833 42.3385 232.672 41.7604 232.672 41.0625V29.125ZM241.953 36.7812V44H240.109V28H241.953V33.875H242.109C242.391 33.2552 242.813 32.763 243.375 32.3984C243.943 32.0286 244.698 31.8438 245.641 31.8438C246.458 31.8438 247.174 32.0078 247.789 32.3359C248.404 32.6589 248.88 33.1562 249.219 33.8281C249.563 34.4948 249.734 35.3437 249.734 36.375V44H247.891V36.5C247.891 35.5469 247.643 34.8099 247.148 34.2891C246.659 33.763 245.979 33.5 245.109 33.5C244.505 33.5 243.964 33.6276 243.484 33.8828C243.01 34.138 242.635 34.5104 242.359 35C242.089 35.4896 241.953 36.0833 241.953 36.7812ZM259.545 28H261.857L267.295 41.2812H267.482L272.92 28H275.232V44H273.42V31.8438H273.264L268.264 44H266.514L261.514 31.8438H261.357V44H259.545V28ZM283.898 44.25C282.742 44.25 281.745 43.9948 280.906 43.4844C280.073 42.9688 279.43 42.25 278.977 41.3281C278.529 40.401 278.305 39.3229 278.305 38.0938C278.305 36.8646 278.529 35.7812 278.977 34.8437C279.43 33.901 280.06 33.1667 280.867 32.6406C281.68 32.1094 282.628 31.8438 283.711 31.8438C284.336 31.8438 284.953 31.9479 285.563 32.1562C286.172 32.3646 286.727 32.7031 287.227 33.1719C287.727 33.6354 288.125 34.25 288.422 35.0156C288.719 35.7812 288.867 36.724 288.867 37.8437V38.625H279.617V37.0312H286.992C286.992 36.3542 286.857 35.75 286.586 35.2187C286.32 34.6875 285.94 34.2682 285.445 33.9609C284.956 33.6536 284.378 33.5 283.711 33.5C282.977 33.5 282.341 33.6823 281.805 34.0469C281.273 34.4062 280.865 34.875 280.578 35.4531C280.292 36.0312 280.148 36.651 280.148 37.3125V38.375C280.148 39.2813 280.305 40.0495 280.617 40.6797C280.935 41.3047 281.375 41.7812 281.938 42.1094C282.5 42.4323 283.154 42.5938 283.898 42.5938C284.383 42.5938 284.82 42.526 285.211 42.3906C285.607 42.25 285.948 42.0417 286.234 41.7656C286.521 41.4844 286.742 41.1354 286.898 40.7187L288.68 41.2188C288.492 41.8229 288.177 42.3542 287.734 42.8125C287.292 43.2656 286.745 43.6198 286.094 43.875C285.443 44.125 284.711 44.25 283.898 44.25ZM293.016 44.125C292.63 44.125 292.299 43.987 292.023 43.7109C291.747 43.4349 291.609 43.1042 291.609 42.7187C291.609 42.3333 291.747 42.0026 292.023 41.7266C292.299 41.4505 292.63 41.3125 293.016 41.3125C293.401 41.3125 293.732 41.4505 294.008 41.7266C294.284 42.0026 294.422 42.3333 294.422 42.7187C294.422 42.974 294.357 43.2083 294.227 43.4219C294.102 43.6354 293.932 43.8073 293.719 43.9375C293.51 44.0625 293.276 44.125 293.016 44.125ZM317.668 36C317.668 37.6875 317.363 39.1458 316.754 40.375C316.145 41.6042 315.309 42.5521 314.246 43.2188C313.184 43.8854 311.97 44.2187 310.605 44.2187C309.241 44.2187 308.027 43.8854 306.965 43.2188C305.902 42.5521 305.066 41.6042 304.457 40.375C303.848 39.1458 303.543 37.6875 303.543 36C303.543 34.3125 303.848 32.8542 304.457 31.625C305.066 30.3958 305.902 29.4479 306.965 28.7812C308.027 28.1146 309.241 27.7812 310.605 27.7812C311.97 27.7812 313.184 28.1146 314.246 28.7812C315.309 29.4479 316.145 30.3958 316.754 31.625C317.363 32.8542 317.668 34.3125 317.668 36ZM315.793 36C315.793 34.6146 315.561 33.4453 315.098 32.4922C314.639 31.5391 314.017 30.8177 313.23 30.3281C312.449 29.8385 311.574 29.5937 310.605 29.5937C309.637 29.5937 308.759 29.8385 307.973 30.3281C307.191 30.8177 306.569 31.5391 306.105 32.4922C305.647 33.4453 305.418 34.6146 305.418 36C305.418 37.3854 305.647 38.5547 306.105 39.5078C306.569 40.4609 307.191 41.1823 307.973 41.6719C308.759 42.1615 309.637 42.4062 310.605 42.4062C311.574 42.4062 312.449 42.1615 313.23 41.6719C314.017 41.1823 314.639 40.4609 315.098 39.5078C315.561 38.5547 315.793 37.3854 315.793 36ZM320.676 44V32H322.457V33.8125H322.582C322.801 33.2188 323.197 32.737 323.77 32.3672C324.342 31.9974 324.988 31.8125 325.707 31.8125C325.842 31.8125 326.012 31.8151 326.215 31.8203C326.418 31.8255 326.572 31.8333 326.676 31.8438V33.7187C326.613 33.7031 326.47 33.6797 326.246 33.6484C326.027 33.612 325.796 33.5937 325.551 33.5937C324.967 33.5937 324.447 33.7161 323.988 33.9609C323.535 34.2005 323.176 34.5339 322.91 34.9609C322.65 35.3828 322.52 35.8646 322.52 36.4062V44H320.676ZM348.174 33H346.236C346.122 32.4427 345.921 31.9531 345.635 31.5312C345.354 31.1094 345.01 30.7552 344.604 30.4688C344.202 30.1771 343.757 29.9583 343.268 29.8125C342.778 29.6667 342.268 29.5937 341.736 29.5937C340.768 29.5937 339.89 29.8385 339.104 30.3281C338.322 30.8177 337.7 31.5391 337.236 32.4922C336.778 33.4453 336.549 34.6146 336.549 36C336.549 37.3854 336.778 38.5547 337.236 39.5078C337.7 40.4609 338.322 41.1823 339.104 41.6719C339.89 42.1615 340.768 42.4062 341.736 42.4062C342.268 42.4062 342.778 42.3333 343.268 42.1875C343.757 42.0417 344.202 41.8255 344.604 41.5391C345.01 41.2474 345.354 40.8906 345.635 40.4687C345.921 40.0417 346.122 39.5521 346.236 39H348.174C348.028 39.8177 347.762 40.5495 347.377 41.1953C346.992 41.8411 346.512 42.3906 345.939 42.8437C345.367 43.2917 344.723 43.6328 344.01 43.8672C343.301 44.1016 342.544 44.2187 341.736 44.2187C340.372 44.2187 339.158 43.8854 338.096 43.2188C337.033 42.5521 336.197 41.6042 335.588 40.375C334.979 39.1458 334.674 37.6875 334.674 36C334.674 34.3125 334.979 32.8542 335.588 31.625C336.197 30.3958 337.033 29.4479 338.096 28.7812C339.158 28.1146 340.372 27.7812 341.736 27.7812C342.544 27.7812 343.301 27.8984 344.01 28.1328C344.723 28.3672 345.367 28.7109 345.939 29.1641C346.512 29.612 346.992 30.1589 347.377 30.8047C347.762 31.4453 348.028 32.1771 348.174 33ZM354.586 44.2813C353.826 44.2813 353.135 44.138 352.516 43.8516C351.896 43.5599 351.404 43.1406 351.039 42.5938C350.674 42.0417 350.492 41.375 350.492 40.5937C350.492 39.9062 350.628 39.349 350.898 38.9219C351.169 38.4896 351.531 38.151 351.984 37.9062C352.437 37.6615 352.938 37.4792 353.484 37.3594C354.036 37.2344 354.591 37.1354 355.148 37.0625C355.878 36.9687 356.469 36.8984 356.922 36.8516C357.38 36.7995 357.714 36.7135 357.922 36.5937C358.135 36.474 358.242 36.2656 358.242 35.9687V35.9062C358.242 35.1354 358.031 34.5365 357.609 34.1094C357.193 33.6823 356.56 33.4687 355.711 33.4687C354.831 33.4687 354.141 33.6615 353.641 34.0469C353.141 34.4323 352.789 34.8437 352.586 35.2812L350.836 34.6562C351.148 33.9271 351.565 33.3594 352.086 32.9531C352.612 32.5417 353.185 32.2552 353.805 32.0937C354.43 31.9271 355.044 31.8438 355.648 31.8438C356.034 31.8438 356.477 31.8906 356.977 31.9844C357.482 32.0729 357.969 32.2578 358.438 32.5391C358.911 32.8203 359.305 33.2448 359.617 33.8125C359.93 34.3802 360.086 35.1406 360.086 36.0938V44H358.242V42.375H358.148C358.023 42.6354 357.815 42.9141 357.523 43.2109C357.232 43.5078 356.844 43.7604 356.359 43.9687C355.875 44.1771 355.284 44.2813 354.586 44.2813ZM354.867 42.625C355.596 42.625 356.211 42.4818 356.711 42.1953C357.216 41.9089 357.596 41.5391 357.852 41.0859C358.112 40.6328 358.242 40.1562 358.242 39.6562V37.9687C358.164 38.0625 357.992 38.1484 357.727 38.2266C357.466 38.2995 357.164 38.3646 356.82 38.4219C356.482 38.474 356.151 38.5208 355.828 38.5625C355.51 38.599 355.253 38.6302 355.055 38.6562C354.576 38.7187 354.128 38.8203 353.711 38.9609C353.299 39.0964 352.966 39.3021 352.711 39.5781C352.461 39.849 352.336 40.2187 352.336 40.6875C352.336 41.3281 352.573 41.8125 353.047 42.1406C353.526 42.4635 354.133 42.625 354.867 42.625ZM365.295 28V44H363.451V28H365.295ZM370.516 28V44H368.672V28H370.516ZM0.9375 71V55H6.53125C7.64583 55 8.5651 55.1927 9.28906 55.5781C10.013 55.9583 10.5521 56.4714 10.9063 57.1172C11.2604 57.7578 11.4375 58.4687 11.4375 59.25C11.4375 59.9375 11.3151 60.5052 11.0703 60.9531C10.8307 61.401 10.513 61.7552 10.1172 62.0156C9.72656 62.276 9.30208 62.4687 8.84375 62.5937V62.75C9.33333 62.7812 9.82552 62.9531 10.3203 63.2656C10.8151 63.5781 11.2292 64.026 11.5625 64.6094C11.8958 65.1927 12.0625 65.9062 12.0625 66.75C12.0625 67.5521 11.8802 68.2734 11.5156 68.9141C11.151 69.5547 10.5755 70.0625 9.78906 70.4375C9.0026 70.8125 7.97917 71 6.71875 71H0.9375ZM2.875 69.2812H6.71875C7.98438 69.2812 8.88281 69.0365 9.41406 68.5469C9.95052 68.0521 10.2188 67.4531 10.2188 66.75C10.2188 66.2083 10.0807 65.7083 9.80469 65.25C9.52865 64.7865 9.13542 64.4167 8.625 64.1406C8.11458 63.8594 7.51042 63.7188 6.8125 63.7188H2.875V69.2812ZM2.875 62.0312H6.46875C7.05208 62.0312 7.57813 61.9167 8.04688 61.6875C8.52083 61.4583 8.89583 61.1354 9.17188 60.7187C9.45313 60.3021 9.59375 59.8125 9.59375 59.25C9.59375 58.5469 9.34896 57.9505 8.85938 57.4609C8.36979 56.9661 7.59375 56.7187 6.53125 56.7187H2.875V62.0312ZM20.0273 71.25C18.8711 71.25 17.8737 70.9948 17.0352 70.4844C16.2018 69.9688 15.5586 69.25 15.1055 68.3281C14.6576 67.401 14.4336 66.3229 14.4336 65.0938C14.4336 63.8646 14.6576 62.7812 15.1055 61.8437C15.5586 60.901 16.1888 60.1667 16.9961 59.6406C17.8086 59.1094 18.7565 58.8438 19.8398 58.8438C20.4648 58.8438 21.082 58.9479 21.6914 59.1562C22.3008 59.3646 22.8555 59.7031 23.3555 60.1719C23.8555 60.6354 24.2539 61.25 24.5508 62.0156C24.8477 62.7812 24.9961 63.724 24.9961 64.8437V65.625H15.7461V64.0312H23.1211C23.1211 63.3542 22.9857 62.75 22.7148 62.2187C22.4492 61.6875 22.069 61.2682 21.5742 60.9609C21.0846 60.6536 20.5065 60.5 19.8398 60.5C19.1055 60.5 18.4701 60.6823 17.9336 61.0469C17.4023 61.4062 16.9935 61.875 16.707 62.4531C16.4206 63.0312 16.2773 63.651 16.2773 64.3125V65.375C16.2773 66.2813 16.4336 67.0495 16.7461 67.6797C17.0638 68.3047 17.5039 68.7812 18.0664 69.1094C18.6289 69.4323 19.2826 69.5938 20.0273 69.5938C20.5117 69.5938 20.9492 69.526 21.3398 69.3906C21.7357 69.25 22.0768 69.0417 22.3633 68.7656C22.6497 68.4844 22.8711 68.1354 23.0273 67.7187L24.8086 68.2188C24.6211 68.8229 24.306 69.3542 23.8633 69.8125C23.4206 70.2656 22.8737 70.6198 22.2227 70.875C21.5716 71.125 20.8398 71.25 20.0273 71.25ZM33.0195 59V60.5625H26.8008V59H33.0195ZM28.6133 56.125H30.457V67.5625C30.457 68.0833 30.5326 68.474 30.6836 68.7344C30.8398 68.9896 31.0378 69.1615 31.2773 69.25C31.5221 69.3333 31.7799 69.375 32.0508 69.375C32.2539 69.375 32.4206 69.3646 32.5508 69.3437C32.681 69.3177 32.7852 69.2969 32.8633 69.2812L33.2383 70.9375C33.1133 70.9844 32.9388 71.0313 32.7148 71.0781C32.4909 71.1302 32.207 71.1563 31.8633 71.1563C31.3424 71.1563 30.832 71.0443 30.332 70.8203C29.8372 70.5964 29.4258 70.2552 29.0977 69.7969C28.7747 69.3385 28.6133 68.7604 28.6133 68.0625V56.125ZM38.5117 71L34.8555 59H36.793L39.3867 68.1875H39.5117L42.0742 59H44.043L46.5742 68.1562H46.6992L49.293 59H51.2305L47.5742 71H45.7617L43.1367 61.7812H42.9492L40.3242 71H38.5117ZM58.291 71.25C57.1348 71.25 56.1374 70.9948 55.2988 70.4844C54.4655 69.9688 53.8223 69.25 53.3691 68.3281C52.9212 67.401 52.6973 66.3229 52.6973 65.0938C52.6973 63.8646 52.9212 62.7812 53.3691 61.8437C53.8223 60.901 54.4525 60.1667 55.2598 59.6406C56.0723 59.1094 57.0202 58.8438 58.1035 58.8438C58.7285 58.8438 59.3457 58.9479 59.9551 59.1562C60.5645 59.3646 61.1191 59.7031 61.6191 60.1719C62.1191 60.6354 62.5176 61.25 62.8145 62.0156C63.1113 62.7812 63.2598 63.724 63.2598 64.8437V65.625H54.0098V64.0312H61.3848C61.3848 63.3542 61.2493 62.75 60.9785 62.2187C60.7129 61.6875 60.3327 61.2682 59.8379 60.9609C59.3483 60.6536 58.7702 60.5 58.1035 60.5C57.3691 60.5 56.7337 60.6823 56.1973 61.0469C55.666 61.4062 55.2572 61.875 54.9707 62.4531C54.6842 63.0312 54.541 63.651 54.541 64.3125V65.375C54.541 66.2813 54.6973 67.0495 55.0098 67.6797C55.3275 68.3047 55.7676 68.7812 56.3301 69.1094C56.8926 69.4323 57.5462 69.5938 58.291 69.5938C58.7754 69.5938 59.2129 69.526 59.6035 69.3906C59.9993 69.25 60.3405 69.0417 60.627 68.7656C60.9134 68.4844 61.1348 68.1354 61.291 67.7187L63.0723 68.2188C62.8848 68.8229 62.5697 69.3542 62.127 69.8125C61.6842 70.2656 61.1374 70.6198 60.4863 70.875C59.8353 71.125 59.1035 71.25 58.291 71.25ZM71.0957 71.25C69.9395 71.25 68.9421 70.9948 68.1035 70.4844C67.2702 69.9688 66.627 69.25 66.1738 68.3281C65.7259 67.401 65.502 66.3229 65.502 65.0938C65.502 63.8646 65.7259 62.7812 66.1738 61.8437C66.627 60.901 67.2572 60.1667 68.0645 59.6406C68.877 59.1094 69.8249 58.8438 70.9082 58.8438C71.5332 58.8438 72.1504 58.9479 72.7598 59.1562C73.3691 59.3646 73.9238 59.7031 74.4238 60.1719C74.9238 60.6354 75.3223 61.25 75.6191 62.0156C75.916 62.7812 76.0645 63.724 76.0645 64.8437V65.625H66.8145V64.0312H74.1895C74.1895 63.3542 74.054 62.75 73.7832 62.2187C73.5176 61.6875 73.1374 61.2682 72.6426 60.9609C72.153 60.6536 71.5749 60.5 70.9082 60.5C70.1738 60.5 69.5384 60.6823 69.002 61.0469C68.4707 61.4062 68.0618 61.875 67.7754 62.4531C67.4889 63.0312 67.3457 63.651 67.3457 64.3125V65.375C67.3457 66.2813 67.502 67.0495 67.8145 67.6797C68.1322 68.3047 68.5723 68.7812 69.1348 69.1094C69.6973 69.4323 70.3509 69.5938 71.0957 69.5938C71.5801 69.5938 72.0176 69.526 72.4082 69.3906C72.804 69.25 73.1452 69.0417 73.4316 68.7656C73.7181 68.4844 73.9395 68.1354 74.0957 67.7187L75.877 68.2188C75.6895 68.8229 75.3743 69.3542 74.9316 69.8125C74.4889 70.2656 73.9421 70.6198 73.291 70.875C72.64 71.125 71.9082 71.25 71.0957 71.25ZM80.7129 63.7812V71H78.8691V59H80.6504V60.875H80.8066C81.0879 60.2656 81.515 59.776 82.0879 59.4063C82.6608 59.0313 83.4004 58.8438 84.3066 58.8438C85.1191 58.8438 85.8301 59.0104 86.4395 59.3437C87.0488 59.6719 87.5228 60.1719 87.8613 60.8437C88.1999 61.5104 88.3691 62.3542 88.3691 63.375V71H86.5254V63.5C86.5254 62.5573 86.2806 61.8229 85.791 61.2969C85.3014 60.7656 84.6296 60.5 83.7754 60.5C83.1868 60.5 82.6608 60.6276 82.1973 60.8828C81.7389 61.138 81.377 61.5104 81.1113 62C80.8457 62.4896 80.7129 63.0833 80.7129 63.7812ZM102.988 54.7812C103.645 54.7865 104.301 54.9115 104.957 55.1562C105.613 55.401 106.212 55.8073 106.754 56.375C107.296 56.9375 107.73 57.7057 108.059 58.6797C108.387 59.6536 108.551 60.875 108.551 62.3438C108.551 63.7656 108.415 65.0286 108.145 66.1328C107.879 67.2318 107.493 68.1589 106.988 68.9141C106.488 69.6693 105.879 70.2422 105.16 70.6328C104.447 71.0234 103.639 71.2187 102.738 71.2187C101.842 71.2187 101.043 71.0417 100.34 70.6875C99.6419 70.3281 99.069 69.8307 98.6211 69.1953C98.1784 68.5547 97.8945 67.8125 97.7695 66.9687H99.6758C99.8477 67.7031 100.189 68.3099 100.699 68.7891C101.215 69.263 101.895 69.5 102.738 69.5C103.973 69.5 104.947 68.9609 105.66 67.8828C106.379 66.8047 106.738 65.2812 106.738 63.3125H106.613C106.322 63.75 105.975 64.1276 105.574 64.4453C105.173 64.763 104.728 65.0078 104.238 65.1797C103.749 65.3516 103.228 65.4375 102.676 65.4375C101.759 65.4375 100.918 65.2109 100.152 64.7578C99.3919 64.2995 98.7826 63.6719 98.3242 62.875C97.8711 62.0729 97.6445 61.1562 97.6445 60.125C97.6445 59.1458 97.8633 58.25 98.3008 57.4375C98.7435 56.6198 99.3633 55.9687 100.16 55.4844C100.962 55 101.905 54.7656 102.988 54.7812ZM102.988 56.5C102.332 56.5 101.741 56.6641 101.215 56.9922C100.694 57.3151 100.28 57.7526 99.9727 58.3047C99.6706 58.8516 99.5195 59.4583 99.5195 60.125C99.5195 60.7917 99.6654 61.3984 99.957 61.9453C100.254 62.487 100.658 62.9193 101.168 63.2422C101.684 63.5599 102.27 63.7188 102.926 63.7188C103.421 63.7188 103.882 63.6224 104.309 63.4297C104.736 63.2318 105.108 62.9635 105.426 62.625C105.749 62.2812 106.001 61.8932 106.184 61.4609C106.366 61.0234 106.457 60.5677 106.457 60.0937C106.457 59.4687 106.306 58.8828 106.004 58.3359C105.707 57.7891 105.296 57.3464 104.77 57.0078C104.249 56.6693 103.655 56.5 102.988 56.5ZM112.998 68.9531C112.613 68.9531 112.282 68.8151 112.006 68.5391C111.73 68.263 111.592 67.9323 111.592 67.5469C111.592 67.1615 111.73 66.8307 112.006 66.5547C112.282 66.2786 112.613 66.1406 112.998 66.1406C113.383 66.1406 113.714 66.2786 113.99 66.5547C114.266 66.8307 114.404 67.1615 114.404 67.5469C114.404 67.8021 114.339 68.0365 114.209 68.25C114.084 68.4635 113.915 68.6354 113.701 68.7656C113.493 68.8906 113.258 68.9531 112.998 68.9531ZM112.998 60.8594C112.613 60.8594 112.282 60.7214 112.006 60.4453C111.73 60.1693 111.592 59.8385 111.592 59.4531C111.592 59.0677 111.73 58.737 112.006 58.4609C112.282 58.1849 112.613 58.0469 112.998 58.0469C113.383 58.0469 113.714 58.1849 113.99 58.4609C114.266 58.737 114.404 59.0677 114.404 59.4531C114.404 59.7083 114.339 59.9427 114.209 60.1562C114.084 60.3698 113.915 60.5417 113.701 60.6719C113.493 60.7969 113.258 60.8594 112.998 60.8594ZM122.9 71.2187C121.723 71.2187 120.721 70.8984 119.893 70.2578C119.064 69.612 118.432 68.6771 117.994 67.4531C117.557 66.224 117.338 64.7396 117.338 63C117.338 61.2708 117.557 59.7943 117.994 58.5703C118.437 57.3411 119.072 56.4036 119.9 55.7578C120.734 55.1068 121.734 54.7812 122.9 54.7812C124.067 54.7812 125.064 55.1068 125.893 55.7578C126.726 56.4036 127.361 57.3411 127.799 58.5703C128.242 59.7943 128.463 61.2708 128.463 63C128.463 64.7396 128.244 66.224 127.807 67.4531C127.369 68.6771 126.736 69.612 125.908 70.2578C125.08 70.8984 124.077 71.2187 122.9 71.2187ZM122.9 69.5C124.067 69.5 124.973 68.9375 125.619 67.8125C126.265 66.6875 126.588 65.0833 126.588 63C126.588 61.6146 126.439 60.4349 126.143 59.4609C125.851 58.487 125.429 57.7448 124.877 57.2344C124.33 56.724 123.671 56.4687 122.9 56.4687C121.744 56.4687 120.84 57.0391 120.189 58.1797C119.538 59.3151 119.213 60.9219 119.213 63C119.213 64.3854 119.359 65.5625 119.65 66.5312C119.942 67.5 120.361 68.237 120.908 68.7422C121.46 69.2474 122.124 69.5 122.9 69.5ZM136.65 71.2187C135.473 71.2187 134.471 70.8984 133.643 70.2578C132.814 69.612 132.182 68.6771 131.744 67.4531C131.307 66.224 131.088 64.7396 131.088 63C131.088 61.2708 131.307 59.7943 131.744 58.5703C132.187 57.3411 132.822 56.4036 133.65 55.7578C134.484 55.1068 135.484 54.7812 136.65 54.7812C137.817 54.7812 138.814 55.1068 139.643 55.7578C140.476 56.4036 141.111 57.3411 141.549 58.5703C141.992 59.7943 142.213 61.2708 142.213 63C142.213 64.7396 141.994 66.224 141.557 67.4531C141.119 68.6771 140.486 69.612 139.658 70.2578C138.83 70.8984 137.827 71.2187 136.65 71.2187ZM136.65 69.5C137.817 69.5 138.723 68.9375 139.369 67.8125C140.015 66.6875 140.338 65.0833 140.338 63C140.338 61.6146 140.189 60.4349 139.893 59.4609C139.601 58.487 139.179 57.7448 138.627 57.2344C138.08 56.724 137.421 56.4687 136.65 56.4687C135.494 56.4687 134.59 57.0391 133.939 58.1797C133.288 59.3151 132.963 60.9219 132.963 63C132.963 64.3854 133.109 65.5625 133.4 66.5312C133.692 67.5 134.111 68.237 134.658 68.7422C135.21 69.2474 135.874 69.5 136.65 69.5ZM152.307 71H150.275L156.15 55H158.15L164.025 71H161.994L157.213 57.5312H157.088L152.307 71ZM153.057 64.75H161.244V66.4687H153.057V64.75ZM167.611 71.125C167.226 71.125 166.895 70.987 166.619 70.7109C166.343 70.4349 166.205 70.1042 166.205 69.7187C166.205 69.3333 166.343 69.0026 166.619 68.7266C166.895 68.4505 167.226 68.3125 167.611 68.3125C167.997 68.3125 168.327 68.4505 168.604 68.7266C168.88 69.0026 169.018 69.3333 169.018 69.7187C169.018 69.974 168.952 70.2083 168.822 70.4219C168.697 70.6354 168.528 70.8073 168.314 70.9375C168.106 71.0625 167.872 71.125 167.611 71.125ZM172.576 55H174.889L180.326 68.2812H180.514L185.951 55H188.264V71H186.451V58.8438H186.295L181.295 71H179.545L174.545 58.8438H174.389V71H172.576V55ZM193.242 71.125C192.857 71.125 192.526 70.987 192.25 70.7109C191.974 70.4349 191.836 70.1042 191.836 69.7187C191.836 69.3333 191.974 69.0026 192.25 68.7266C192.526 68.4505 192.857 68.3125 193.242 68.3125C193.628 68.3125 193.958 68.4505 194.234 68.7266C194.51 69.0026 194.648 69.3333 194.648 69.7187C194.648 69.974 194.583 70.2083 194.453 70.4219C194.328 70.6354 194.159 70.8073 193.945 70.9375C193.737 71.0625 193.503 71.125 193.242 71.125ZM205.051 71H203.02L208.895 55H210.895L216.77 71H214.738L209.957 57.5312H209.832L205.051 71ZM205.801 64.75H213.988V66.4687H205.801V64.75ZM220.855 63.7812V71H219.012V59H220.793V60.875H220.949C221.23 60.2656 221.658 59.776 222.23 59.4063C222.803 59.0313 223.543 58.8438 224.449 58.8438C225.262 58.8438 225.973 59.0104 226.582 59.3437C227.191 59.6719 227.665 60.1719 228.004 60.8437C228.342 61.5104 228.512 62.3542 228.512 63.375V71H226.668V63.5C226.668 62.5573 226.423 61.8229 225.934 61.2969C225.444 60.7656 224.772 60.5 223.918 60.5C223.329 60.5 222.803 60.6276 222.34 60.8828C221.882 61.138 221.52 61.5104 221.254 62C220.988 62.4896 220.855 63.0833 220.855 63.7812ZM236.412 71.25C235.412 71.25 234.529 70.9974 233.764 70.4922C232.998 69.9818 232.399 69.263 231.967 68.3359C231.535 67.4036 231.318 66.3021 231.318 65.0313C231.318 63.7708 231.535 62.6771 231.967 61.75C232.399 60.8229 233.001 60.1068 233.771 59.6016C234.542 59.0964 235.433 58.8438 236.443 58.8438C237.225 58.8438 237.842 58.974 238.295 59.2344C238.753 59.4896 239.102 59.7812 239.342 60.1094C239.587 60.4323 239.777 60.6979 239.912 60.9062H240.068V55H241.912V71H240.131V69.1562H239.912C239.777 69.375 239.584 69.651 239.334 69.9844C239.084 70.3125 238.727 70.6068 238.264 70.8672C237.8 71.1224 237.183 71.25 236.412 71.25ZM236.662 69.5938C237.402 69.5938 238.027 69.401 238.537 69.0156C239.048 68.625 239.436 68.0859 239.701 67.3984C239.967 66.7057 240.1 65.9062 240.1 65C240.1 64.1042 239.969 63.3203 239.709 62.6484C239.449 61.9714 239.063 61.4453 238.553 61.0703C238.042 60.6901 237.412 60.5 236.662 60.5C235.881 60.5 235.23 60.7005 234.709 61.1016C234.193 61.4974 233.805 62.0365 233.545 62.7187C233.29 63.3958 233.162 64.1562 233.162 65C233.162 65.8542 233.292 66.6302 233.553 67.3281C233.818 68.0208 234.209 68.5729 234.725 68.9844C235.245 69.3906 235.891 69.5938 236.662 69.5938ZM256.826 71.2187C255.753 71.2187 254.805 71.0286 253.982 70.6484C253.165 70.263 252.527 69.7344 252.068 69.0625C251.61 68.3854 251.383 67.6146 251.389 66.75C251.383 66.0729 251.516 65.4479 251.787 64.875C252.058 64.2969 252.428 63.8151 252.896 63.4297C253.37 63.0391 253.899 62.7917 254.482 62.6875V62.5937C253.717 62.3958 253.107 61.9661 252.654 61.3047C252.201 60.638 251.977 59.8802 251.982 59.0312C251.977 58.2187 252.183 57.4922 252.6 56.8516C253.016 56.2109 253.589 55.7057 254.318 55.3359C255.053 54.9661 255.889 54.7812 256.826 54.7812C257.753 54.7812 258.581 54.9661 259.311 55.3359C260.04 55.7057 260.613 56.2109 261.029 56.8516C261.451 57.4922 261.665 58.2187 261.67 59.0312C261.665 59.8802 261.433 60.638 260.975 61.3047C260.521 61.9661 259.92 62.3958 259.17 62.5937V62.6875C259.748 62.7917 260.269 63.0391 260.732 63.4297C261.196 63.8151 261.566 64.2969 261.842 64.875C262.118 65.4479 262.258 66.0729 262.264 66.75C262.258 67.6146 262.024 68.3854 261.561 69.0625C261.102 69.7344 260.464 70.263 259.646 70.6484C258.834 71.0286 257.894 71.2187 256.826 71.2187ZM256.826 69.5C257.55 69.5 258.175 69.3828 258.701 69.1484C259.227 68.9141 259.633 68.5833 259.92 68.1562C260.206 67.7292 260.352 67.2292 260.357 66.6562C260.352 66.0521 260.196 65.5182 259.889 65.0547C259.581 64.5911 259.162 64.2266 258.631 63.9609C258.105 63.6953 257.503 63.5625 256.826 63.5625C256.144 63.5625 255.535 63.6953 254.998 63.9609C254.467 64.2266 254.048 64.5911 253.74 65.0547C253.438 65.5182 253.29 66.0521 253.295 66.6562C253.29 67.2292 253.428 67.7292 253.709 68.1562C253.995 68.5833 254.404 68.9141 254.936 69.1484C255.467 69.3828 256.097 69.5 256.826 69.5ZM256.826 61.9062C257.399 61.9062 257.907 61.7917 258.35 61.5625C258.798 61.3333 259.149 61.013 259.404 60.6016C259.66 60.1901 259.79 59.7083 259.795 59.1562C259.79 58.6146 259.662 58.1432 259.412 57.7422C259.162 57.3359 258.816 57.0234 258.373 56.8047C257.93 56.5807 257.415 56.4687 256.826 56.4687C256.227 56.4687 255.704 56.5807 255.256 56.8047C254.808 57.0234 254.462 57.3359 254.217 57.7422C253.972 58.1432 253.852 58.6146 253.857 59.1562C253.852 59.7083 253.975 60.1901 254.225 60.6016C254.48 61.013 254.831 61.3333 255.279 61.5625C255.727 61.7917 256.243 61.9062 256.826 61.9062ZM266.633 68.9531C266.247 68.9531 265.917 68.8151 265.641 68.5391C265.365 68.263 265.227 67.9323 265.227 67.5469C265.227 67.1615 265.365 66.8307 265.641 66.5547C265.917 66.2786 266.247 66.1406 266.633 66.1406C267.018 66.1406 267.349 66.2786 267.625 66.5547C267.901 66.8307 268.039 67.1615 268.039 67.5469C268.039 67.8021 267.974 68.0365 267.844 68.25C267.719 68.4635 267.549 68.6354 267.336 68.7656C267.128 68.8906 266.893 68.9531 266.633 68.9531ZM266.633 60.8594C266.247 60.8594 265.917 60.7214 265.641 60.4453C265.365 60.1693 265.227 59.8385 265.227 59.4531C265.227 59.0677 265.365 58.737 265.641 58.4609C265.917 58.1849 266.247 58.0469 266.633 58.0469C267.018 58.0469 267.349 58.1849 267.625 58.4609C267.901 58.737 268.039 59.0677 268.039 59.4531C268.039 59.7083 267.974 59.9427 267.844 60.1562C267.719 60.3698 267.549 60.5417 267.336 60.6719C267.128 60.7969 266.893 60.8594 266.633 60.8594ZM276.535 71.2187C275.358 71.2187 274.355 70.8984 273.527 70.2578C272.699 69.612 272.066 68.6771 271.629 67.4531C271.191 66.224 270.973 64.7396 270.973 63C270.973 61.2708 271.191 59.7943 271.629 58.5703C272.072 57.3411 272.707 56.4036 273.535 55.7578C274.368 55.1068 275.368 54.7812 276.535 54.7812C277.702 54.7812 278.699 55.1068 279.527 55.7578C280.361 56.4036 280.996 57.3411 281.434 58.5703C281.876 59.7943 282.098 61.2708 282.098 63C282.098 64.7396 281.879 66.224 281.441 67.4531C281.004 68.6771 280.371 69.612 279.543 70.2578C278.715 70.8984 277.712 71.2187 276.535 71.2187ZM276.535 69.5C277.702 69.5 278.608 68.9375 279.254 67.8125C279.9 66.6875 280.223 65.0833 280.223 63C280.223 61.6146 280.074 60.4349 279.777 59.4609C279.486 58.487 279.064 57.7448 278.512 57.2344C277.965 56.724 277.306 56.4687 276.535 56.4687C275.379 56.4687 274.475 57.0391 273.824 58.1797C273.173 59.3151 272.848 60.9219 272.848 63C272.848 64.3854 272.993 65.5625 273.285 66.5312C273.577 67.5 273.996 68.237 274.543 68.7422C275.095 69.2474 275.759 69.5 276.535 69.5ZM290.285 71.2187C289.108 71.2187 288.105 70.8984 287.277 70.2578C286.449 69.612 285.816 68.6771 285.379 67.4531C284.941 66.224 284.723 64.7396 284.723 63C284.723 61.2708 284.941 59.7943 285.379 58.5703C285.822 57.3411 286.457 56.4036 287.285 55.7578C288.118 55.1068 289.118 54.7812 290.285 54.7812C291.452 54.7812 292.449 55.1068 293.277 55.7578C294.111 56.4036 294.746 57.3411 295.184 58.5703C295.626 59.7943 295.848 61.2708 295.848 63C295.848 64.7396 295.629 66.224 295.191 67.4531C294.754 68.6771 294.121 69.612 293.293 70.2578C292.465 70.8984 291.462 71.2187 290.285 71.2187ZM290.285 69.5C291.452 69.5 292.358 68.9375 293.004 67.8125C293.65 66.6875 293.973 65.0833 293.973 63C293.973 61.6146 293.824 60.4349 293.527 59.4609C293.236 58.487 292.814 57.7448 292.262 57.2344C291.715 56.724 291.056 56.4687 290.285 56.4687C289.129 56.4687 288.225 57.0391 287.574 58.1797C286.923 59.3151 286.598 60.9219 286.598 63C286.598 64.3854 286.743 65.5625 287.035 66.5312C287.327 67.5 287.746 68.237 288.293 68.7422C288.845 69.2474 289.509 69.5 290.285 69.5ZM305.285 71V55H310.691C311.947 55 312.973 55.2266 313.77 55.6797C314.572 56.1276 315.165 56.7344 315.551 57.5C315.936 58.2656 316.129 59.1198 316.129 60.0625C316.129 61.0052 315.936 61.862 315.551 62.6328C315.171 63.4036 314.582 64.0182 313.785 64.4766C312.988 64.9297 311.967 65.1562 310.723 65.1562H306.848V63.4375H310.66C311.52 63.4375 312.21 63.2891 312.73 62.9922C313.251 62.6953 313.629 62.2943 313.863 61.7891C314.103 61.2786 314.223 60.7031 314.223 60.0625C314.223 59.4219 314.103 58.849 313.863 58.3437C313.629 57.8385 313.249 57.4427 312.723 57.1562C312.197 56.8646 311.499 56.7187 310.629 56.7187H307.223V71H305.285ZM319.592 71.125C319.206 71.125 318.876 70.987 318.6 70.7109C318.324 70.4349 318.186 70.1042 318.186 69.7187C318.186 69.3333 318.324 69.0026 318.6 68.7266C318.876 68.4505 319.206 68.3125 319.592 68.3125C319.977 68.3125 320.308 68.4505 320.584 68.7266C320.86 69.0026 320.998 69.3333 320.998 69.7187C320.998 69.974 320.933 70.2083 320.803 70.4219C320.678 70.6354 320.508 70.8073 320.295 70.9375C320.087 71.0625 319.852 71.125 319.592 71.125ZM324.557 55H326.869L332.307 68.2812H332.494L337.932 55H340.244V71H338.432V58.8438H338.275L333.275 71H331.525L326.525 58.8438H326.369V71H324.557V55ZM345.223 71.125C344.837 71.125 344.507 70.987 344.23 70.7109C343.954 70.4349 343.816 70.1042 343.816 69.7187C343.816 69.3333 343.954 69.0026 344.23 68.7266C344.507 68.4505 344.837 68.3125 345.223 68.3125C345.608 68.3125 345.939 68.4505 346.215 68.7266C346.491 69.0026 346.629 69.3333 346.629 69.7187C346.629 69.974 346.564 70.2083 346.434 70.4219C346.309 70.6354 346.139 70.8073 345.926 70.9375C345.717 71.0625 345.483 71.125 345.223 71.125ZM356.375 71V55H366.031V56.7187H358.313V62.125H365.531V63.8437H358.313V69.2812H366.156V71H356.375ZM368.648 56.7187V55H380.648V56.7187H375.617V71H373.68V56.7187H368.648ZM385.387 68.8125L385.262 69.6562C385.173 70.25 385.038 70.8854 384.855 71.5625C384.678 72.2396 384.493 72.8776 384.301 73.4766C384.108 74.0755 383.949 74.5521 383.824 74.9063H382.418C382.486 74.5729 382.574 74.1328 382.684 73.5859C382.793 73.0391 382.902 72.4271 383.012 71.75C383.126 71.0781 383.22 70.3906 383.293 69.6875L383.387 68.8125H385.387ZM0.9375 82H3.25L8.6875 95.2812H8.875L14.3125 82H16.625V98H14.8125V85.8438H14.6563L9.65625 98H7.90625L2.90625 85.8438H2.75V98H0.9375V82ZM25.1348 98.25C24.0514 98.25 23.1009 97.9922 22.2832 97.4766C21.4707 96.9609 20.8353 96.2396 20.377 95.3125C19.9238 94.3854 19.6973 93.3021 19.6973 92.0625C19.6973 90.8125 19.9238 89.7214 20.377 88.7891C20.8353 87.8568 21.4707 87.1328 22.2832 86.6172C23.1009 86.1016 24.0514 85.8438 25.1348 85.8438C26.2181 85.8438 27.166 86.1016 27.9785 86.6172C28.7962 87.1328 29.4316 87.8568 29.8848 88.7891C30.3431 89.7214 30.5723 90.8125 30.5723 92.0625C30.5723 93.3021 30.3431 94.3854 29.8848 95.3125C29.4316 96.2396 28.7962 96.9609 27.9785 97.4766C27.166 97.9922 26.2181 98.25 25.1348 98.25ZM25.1348 96.5938C25.9577 96.5938 26.6348 96.3828 27.166 95.9609C27.6973 95.5391 28.0905 94.9844 28.3457 94.2969C28.6009 93.6094 28.7285 92.8646 28.7285 92.0625C28.7285 91.2604 28.6009 90.513 28.3457 89.8203C28.0905 89.1276 27.6973 88.5677 27.166 88.1406C26.6348 87.7135 25.9577 87.5 25.1348 87.5C24.3118 87.5 23.6348 87.7135 23.1035 88.1406C22.5723 88.5677 22.179 89.1276 21.9238 89.8203C21.6686 90.513 21.541 91.2604 21.541 92.0625C21.541 92.8646 21.6686 93.6094 21.9238 94.2969C22.179 94.9844 22.5723 95.5391 23.1035 95.9609C23.6348 96.3828 24.3118 96.5938 25.1348 96.5938ZM35.2305 90.7812V98H33.3867V86H35.168V87.875H35.3242C35.6055 87.2656 36.0326 86.776 36.6055 86.4063C37.1784 86.0313 37.918 85.8438 38.8242 85.8438C39.6367 85.8438 40.3477 86.0104 40.957 86.3437C41.5664 86.6719 42.0404 87.1719 42.3789 87.8437C42.7174 88.5104 42.8867 89.3542 42.8867 90.375V98H41.043V90.5C41.043 89.5573 40.7982 88.8229 40.3086 88.2969C39.819 87.7656 39.1471 87.5 38.293 87.5C37.7044 87.5 37.1784 87.6276 36.7148 87.8828C36.2565 88.138 35.8945 88.5104 35.6289 89C35.3633 89.4896 35.2305 90.0833 35.2305 90.7812ZM50.7871 98.25C49.7871 98.25 48.9043 97.9974 48.1387 97.4922C47.373 96.9818 46.7741 96.263 46.3418 95.3359C45.9095 94.4036 45.6934 93.3021 45.6934 92.0313C45.6934 90.7708 45.9095 89.6771 46.3418 88.75C46.7741 87.8229 47.3757 87.1068 48.1465 86.6016C48.9173 86.0964 49.8079 85.8438 50.8184 85.8438C51.5996 85.8438 52.2168 85.974 52.6699 86.2344C53.1283 86.4896 53.4772 86.7812 53.7168 87.1094C53.9616 87.4323 54.1517 87.6979 54.2871 87.9062H54.4434V82H56.2871V98H54.5059V96.1562H54.2871C54.1517 96.375 53.959 96.651 53.709 96.9844C53.459 97.3125 53.1022 97.6068 52.6387 97.8672C52.1751 98.1224 51.5579 98.25 50.7871 98.25ZM51.0371 96.5938C51.7767 96.5938 52.4017 96.401 52.9121 96.0156C53.4225 95.625 53.8105 95.0859 54.0762 94.3984C54.3418 93.7057 54.4746 92.9062 54.4746 92C54.4746 91.1042 54.3444 90.3203 54.084 89.6484C53.8236 88.9714 53.4382 88.4453 52.9277 88.0703C52.4173 87.6901 51.7871 87.5 51.0371 87.5C50.2559 87.5 49.6048 87.7005 49.084 88.1016C48.5684 88.4974 48.1803 89.0365 47.9199 89.7187C47.6647 90.3958 47.5371 91.1562 47.5371 92C47.5371 92.8542 47.6673 93.6302 47.9277 94.3281C48.1934 95.0208 48.584 95.5729 49.0996 95.9844C49.6204 96.3906 50.2663 96.5938 51.0371 96.5938ZM63.4512 98.2813C62.6908 98.2813 62.0007 98.138 61.3809 97.8516C60.7611 97.5599 60.2689 97.1406 59.9043 96.5938C59.5397 96.0417 59.3574 95.375 59.3574 94.5937C59.3574 93.9062 59.4928 93.349 59.7637 92.9219C60.0345 92.4896 60.3965 92.151 60.8496 91.9062C61.3027 91.6615 61.8027 91.4792 62.3496 91.3594C62.9017 91.2344 63.4564 91.1354 64.0137 91.0625C64.7428 90.9687 65.334 90.8984 65.7871 90.8516C66.2454 90.7995 66.5788 90.7135 66.7871 90.5937C67.0007 90.474 67.1074 90.2656 67.1074 89.9687V89.9062C67.1074 89.1354 66.8965 88.5365 66.4746 88.1094C66.0579 87.6823 65.4251 87.4687 64.5762 87.4687C63.696 87.4687 63.0059 87.6615 62.5059 88.0469C62.0059 88.4323 61.6543 88.8437 61.4512 89.2812L59.7012 88.6562C60.0137 87.9271 60.4303 87.3594 60.9512 86.9531C61.4772 86.5417 62.0501 86.2552 62.6699 86.0937C63.2949 85.9271 63.9095 85.8438 64.5137 85.8438C64.8991 85.8438 65.3418 85.8906 65.8418 85.9844C66.347 86.0729 66.834 86.2578 67.3027 86.5391C67.7767 86.8203 68.1699 87.2448 68.4824 87.8125C68.7949 88.3802 68.9512 89.1406 68.9512 90.0938V98H67.1074V96.375H67.0137C66.8887 96.6354 66.6803 96.9141 66.3887 97.2109C66.097 97.5078 65.709 97.7604 65.2246 97.9687C64.7402 98.1771 64.1491 98.2813 63.4512 98.2813ZM63.7324 96.625C64.4616 96.625 65.0762 96.4818 65.5762 96.1953C66.0814 95.9089 66.4616 95.5391 66.7168 95.0859C66.9772 94.6328 67.1074 94.1562 67.1074 93.6562V91.9687C67.0293 92.0625 66.8574 92.1484 66.5918 92.2266C66.3314 92.2995 66.0293 92.3646 65.6855 92.4219C65.347 92.474 65.0163 92.5208 64.6934 92.5625C64.3757 92.599 64.1178 92.6302 63.9199 92.6562C63.4408 92.7187 62.9928 92.8203 62.5762 92.9609C62.1647 93.0964 61.8314 93.3021 61.5762 93.5781C61.3262 93.849 61.2012 94.2187 61.2012 94.6875C61.2012 95.3281 61.4382 95.8125 61.9121 96.1406C62.3913 96.4635 62.998 96.625 63.7324 96.625ZM73.0742 102.5C72.7617 102.5 72.4831 102.474 72.2383 102.422C71.9935 102.375 71.8242 102.328 71.7305 102.281L72.1992 100.656C72.6471 100.771 73.043 100.813 73.3867 100.781C73.7305 100.75 74.0352 100.596 74.3008 100.32C74.5716 100.049 74.819 99.6094 75.043 99L75.3867 98.0625L70.9492 86H72.9492L76.2617 95.5625H76.3867L79.6992 86H81.6992L76.6055 99.75C76.3763 100.37 76.0924 100.883 75.7539 101.289C75.4154 101.701 75.0221 102.005 74.5742 102.203C74.1315 102.401 73.6315 102.5 73.0742 102.5ZM89.6953 83.7187V82H101.695V83.7187H96.6641V98H94.7266V83.7187H89.6953ZM106.279 90.7812V98H104.436V82H106.279V87.875H106.436C106.717 87.2552 107.139 86.763 107.701 86.3984C108.269 86.0286 109.024 85.8438 109.967 85.8438C110.785 85.8438 111.501 86.0078 112.115 86.3359C112.73 86.6589 113.206 87.1562 113.545 87.8281C113.889 88.4948 114.061 89.3437 114.061 90.375V98H112.217V90.5C112.217 89.5469 111.969 88.8099 111.475 88.2891C110.985 87.763 110.305 87.5 109.436 87.5C108.831 87.5 108.29 87.6276 107.811 87.8828C107.337 88.138 106.962 88.5104 106.686 89C106.415 89.4896 106.279 90.0833 106.279 90.7812ZM117.434 98V86H119.215V87.8125H119.34C119.559 87.2188 119.954 86.737 120.527 86.3672C121.1 85.9974 121.746 85.8125 122.465 85.8125C122.6 85.8125 122.77 85.8151 122.973 85.8203C123.176 85.8255 123.329 85.8333 123.434 85.8438V87.7187C123.371 87.7031 123.228 87.6797 123.004 87.6484C122.785 87.612 122.553 87.5937 122.309 87.5937C121.725 87.5937 121.204 87.7161 120.746 87.9609C120.293 88.2005 119.934 88.5339 119.668 88.9609C119.408 89.3828 119.277 89.8646 119.277 90.4062V98H117.434ZM130.129 98.25C129.046 98.25 128.095 97.9922 127.277 97.4766C126.465 96.9609 125.829 96.2396 125.371 95.3125C124.918 94.3854 124.691 93.3021 124.691 92.0625C124.691 90.8125 124.918 89.7214 125.371 88.7891C125.829 87.8568 126.465 87.1328 127.277 86.6172C128.095 86.1016 129.046 85.8438 130.129 85.8438C131.212 85.8438 132.16 86.1016 132.973 86.6172C133.79 87.1328 134.426 87.8568 134.879 88.7891C135.337 89.7214 135.566 90.8125 135.566 92.0625C135.566 93.3021 135.337 94.3854 134.879 95.3125C134.426 96.2396 133.79 96.9609 132.973 97.4766C132.16 97.9922 131.212 98.25 130.129 98.25ZM130.129 96.5938C130.952 96.5938 131.629 96.3828 132.16 95.9609C132.691 95.5391 133.085 94.9844 133.34 94.2969C133.595 93.6094 133.723 92.8646 133.723 92.0625C133.723 91.2604 133.595 90.513 133.34 89.8203C133.085 89.1276 132.691 88.5677 132.16 88.1406C131.629 87.7135 130.952 87.5 130.129 87.5C129.306 87.5 128.629 87.7135 128.098 88.1406C127.566 88.5677 127.173 89.1276 126.918 89.8203C126.663 90.513 126.535 91.2604 126.535 92.0625C126.535 92.8646 126.663 93.6094 126.918 94.2969C127.173 94.9844 127.566 95.5391 128.098 95.9609C128.629 96.3828 129.306 96.5938 130.129 96.5938ZM145.943 93.0937V86H147.787V98H145.943V95.9687H145.818C145.537 96.5781 145.1 97.0964 144.506 97.5234C143.912 97.9453 143.162 98.1563 142.256 98.1563C141.506 98.1563 140.839 97.9922 140.256 97.6641C139.673 97.3307 139.214 96.8307 138.881 96.1641C138.548 95.4922 138.381 94.6458 138.381 93.625V86H140.225V93.5C140.225 94.375 140.469 95.0729 140.959 95.5938C141.454 96.1146 142.084 96.375 142.85 96.375C143.308 96.375 143.774 96.2578 144.248 96.0234C144.727 95.7891 145.128 95.4297 145.451 94.9453C145.779 94.4609 145.943 93.8437 145.943 93.0937ZM156.008 102.75C155.117 102.75 154.352 102.635 153.711 102.406C153.07 102.182 152.536 101.885 152.109 101.516C151.688 101.151 151.352 100.76 151.102 100.344L152.57 99.3125C152.737 99.5313 152.948 99.7813 153.203 100.062C153.458 100.349 153.807 100.596 154.25 100.805C154.698 101.018 155.284 101.125 156.008 101.125C156.977 101.125 157.776 100.891 158.406 100.422C159.036 99.9531 159.352 99.2187 159.352 98.2187V95.7812H159.195C159.06 96 158.867 96.2708 158.617 96.5938C158.372 96.9115 158.018 97.1953 157.555 97.4453C157.096 97.6901 156.477 97.8125 155.695 97.8125C154.727 97.8125 153.857 97.5833 153.086 97.125C152.32 96.6667 151.714 96 151.266 95.125C150.823 94.25 150.602 93.1875 150.602 91.9375C150.602 90.7083 150.818 89.638 151.25 88.7266C151.682 87.8099 152.284 87.1016 153.055 86.6016C153.826 86.0964 154.716 85.8438 155.727 85.8438C156.508 85.8438 157.128 85.974 157.586 86.2344C158.049 86.4896 158.404 86.7812 158.648 87.1094C158.898 87.4323 159.091 87.6979 159.227 87.9062H159.414V86H161.195V98.3438C161.195 99.375 160.961 100.214 160.492 100.859C160.029 101.51 159.404 101.987 158.617 102.289C157.836 102.596 156.966 102.75 156.008 102.75ZM155.945 96.1562C156.685 96.1562 157.31 95.987 157.82 95.6484C158.331 95.3099 158.719 94.8229 158.984 94.1875C159.25 93.5521 159.383 92.7917 159.383 91.9062C159.383 91.0417 159.253 90.2786 158.992 89.6172C158.732 88.9557 158.346 88.4375 157.836 88.0625C157.326 87.6875 156.695 87.5 155.945 87.5C155.164 87.5 154.513 87.6979 153.992 88.0937C153.477 88.4896 153.089 89.0208 152.828 89.6875C152.573 90.3542 152.445 91.0937 152.445 91.9062C152.445 92.7396 152.576 93.4766 152.836 94.1172C153.102 94.7526 153.492 95.2526 154.008 95.6172C154.529 95.9766 155.174 96.1562 155.945 96.1562ZM166.414 90.7812V98H164.57V82H166.414V87.875H166.57C166.852 87.2552 167.273 86.763 167.836 86.3984C168.404 86.0286 169.159 85.8438 170.102 85.8438C170.919 85.8438 171.635 86.0078 172.25 86.3359C172.865 86.6589 173.341 87.1562 173.68 87.8281C174.023 88.4948 174.195 89.3437 174.195 90.375V98H172.352V90.5C172.352 89.5469 172.104 88.8099 171.609 88.2891C171.12 87.763 170.44 87.5 169.57 87.5C168.966 87.5 168.424 87.6276 167.945 87.8828C167.471 88.138 167.096 88.5104 166.82 89C166.549 89.4896 166.414 90.0833 166.414 90.7812ZM184.006 98V82H193.6V83.7187H185.943V89.125H192.881V90.8437H185.943V98H184.006ZM196.539 98V86H198.32V87.8125H198.445C198.664 87.2188 199.06 86.737 199.633 86.3672C200.206 85.9974 200.852 85.8125 201.57 85.8125C201.706 85.8125 201.875 85.8151 202.078 85.8203C202.281 85.8255 202.435 85.8333 202.539 85.8438V87.7187C202.477 87.7031 202.333 87.6797 202.109 87.6484C201.891 87.612 201.659 87.5937 201.414 87.5937C200.831 87.5937 200.31 87.7161 199.852 87.9609C199.398 88.2005 199.039 88.5339 198.773 88.9609C198.513 89.3828 198.383 89.8646 198.383 90.4062V98H196.539ZM204.725 98V86H206.568V98H204.725ZM205.662 84C205.303 84 204.993 83.8776 204.732 83.6328C204.477 83.388 204.35 83.0938 204.35 82.75C204.35 82.4063 204.477 82.112 204.732 81.8672C204.993 81.6224 205.303 81.5 205.662 81.5C206.021 81.5 206.329 81.6224 206.584 81.8672C206.844 82.112 206.975 82.4063 206.975 82.75C206.975 83.0938 206.844 83.388 206.584 83.6328C206.329 83.8776 206.021 84 205.662 84ZM214.477 98.25C213.477 98.25 212.594 97.9974 211.828 97.4922C211.063 96.9818 210.464 96.263 210.031 95.3359C209.599 94.4036 209.383 93.3021 209.383 92.0313C209.383 90.7708 209.599 89.6771 210.031 88.75C210.464 87.8229 211.065 87.1068 211.836 86.6016C212.607 86.0964 213.497 85.8438 214.508 85.8438C215.289 85.8438 215.906 85.974 216.359 86.2344C216.818 86.4896 217.167 86.7812 217.406 87.1094C217.651 87.4323 217.841 87.6979 217.977 87.9062H218.133V82H219.977V98H218.195V96.1562H217.977C217.841 96.375 217.648 96.651 217.398 96.9844C217.148 97.3125 216.792 97.6068 216.328 97.8672C215.865 98.1224 215.247 98.25 214.477 98.25ZM214.727 96.5938C215.466 96.5938 216.091 96.401 216.602 96.0156C217.112 95.625 217.5 95.0859 217.766 94.3984C218.031 93.7057 218.164 92.9062 218.164 92C218.164 91.1042 218.034 90.3203 217.773 89.6484C217.513 88.9714 217.128 88.4453 216.617 88.0703C216.107 87.6901 215.477 87.5 214.727 87.5C213.945 87.5 213.294 87.7005 212.773 88.1016C212.258 88.4974 211.87 89.0365 211.609 89.7187C211.354 90.3958 211.227 91.1562 211.227 92C211.227 92.8542 211.357 93.6302 211.617 94.3281C211.883 95.0208 212.273 95.5729 212.789 95.9844C213.31 96.3906 213.956 96.5938 214.727 96.5938ZM227.141 98.2813C226.38 98.2813 225.69 98.138 225.07 97.8516C224.451 97.5599 223.958 97.1406 223.594 96.5938C223.229 96.0417 223.047 95.375 223.047 94.5937C223.047 93.9062 223.182 93.349 223.453 92.9219C223.724 92.4896 224.086 92.151 224.539 91.9062C224.992 91.6615 225.492 91.4792 226.039 91.3594C226.591 91.2344 227.146 91.1354 227.703 91.0625C228.432 90.9687 229.023 90.8984 229.477 90.8516C229.935 90.7995 230.268 90.7135 230.477 90.5937C230.69 90.474 230.797 90.2656 230.797 89.9687V89.9062C230.797 89.1354 230.586 88.5365 230.164 88.1094C229.747 87.6823 229.115 87.4687 228.266 87.4687C227.385 87.4687 226.695 87.6615 226.195 88.0469C225.695 88.4323 225.344 88.8437 225.141 89.2812L223.391 88.6562C223.703 87.9271 224.12 87.3594 224.641 86.9531C225.167 86.5417 225.74 86.2552 226.359 86.0937C226.984 85.9271 227.599 85.8438 228.203 85.8438C228.589 85.8438 229.031 85.8906 229.531 85.9844C230.036 86.0729 230.523 86.2578 230.992 86.5391C231.466 86.8203 231.859 87.2448 232.172 87.8125C232.484 88.3802 232.641 89.1406 232.641 90.0938V98H230.797V96.375H230.703C230.578 96.6354 230.37 96.9141 230.078 97.2109C229.786 97.5078 229.398 97.7604 228.914 97.9687C228.43 98.1771 227.839 98.2813 227.141 98.2813ZM227.422 96.625C228.151 96.625 228.766 96.4818 229.266 96.1953C229.771 95.9089 230.151 95.5391 230.406 95.0859C230.667 94.6328 230.797 94.1562 230.797 93.6562V91.9687C230.719 92.0625 230.547 92.1484 230.281 92.2266C230.021 92.2995 229.719 92.3646 229.375 92.4219C229.036 92.474 228.706 92.5208 228.383 92.5625C228.065 92.599 227.807 92.6302 227.609 92.6562C227.13 92.7187 226.682 92.8203 226.266 92.9609C225.854 93.0964 225.521 93.3021 225.266 93.5781C225.016 93.849 224.891 94.2187 224.891 94.6875C224.891 95.3281 225.128 95.8125 225.602 96.1406C226.081 96.4635 226.688 96.625 227.422 96.625ZM236.764 102.5C236.451 102.5 236.173 102.474 235.928 102.422C235.683 102.375 235.514 102.328 235.42 102.281L235.889 100.656C236.337 100.771 236.732 100.813 237.076 100.781C237.42 100.75 237.725 100.596 237.99 100.32C238.261 100.049 238.508 99.6094 238.732 99L239.076 98.0625L234.639 86H236.639L239.951 95.5625H240.076L243.389 86H245.389L240.295 99.75C240.066 100.37 239.782 100.883 239.443 101.289C239.105 101.701 238.712 102.005 238.264 102.203C237.821 102.401 237.321 102.5 236.764 102.5Z" fill="white"/>
</svg>
