<svg width="150" height="150" viewBox="0 0 150 150" fill="none" xmlns="http://www.w3.org/2000/svg">
<g clip-path="url(#clip0_7_90)">
<path d="M56.25 0H0V56.25H56.25V0ZM46.875 46.875H9.375V9.375H46.875V46.875Z" fill="white"/>
<path d="M18.75 18.75H37.5V37.5H18.75V18.75ZM0 150H56.25V93.75H0V150ZM9.375 103.125H46.875V140.625H9.375V103.125Z" fill="white"/>
<path d="M18.75 112.5H37.5V131.25H18.75V112.5ZM93.75 0V56.25H150V0H93.75ZM140.625 46.875H103.125V9.375H140.625V46.875Z" fill="white"/>
<path d="M112.5 18.75H131.25V37.5H112.5V18.75ZM18.75 65.625H0V84.375H28.125V75H18.75V65.625ZM65.625 84.375H84.375V103.125H65.625V84.375ZM28.125 65.625H46.875V75H28.125V65.625ZM84.375 112.5H65.625V121.875H75V131.25H84.375V121.875V112.5ZM56.25 65.625V75H46.875V84.375H65.625V65.625H56.25ZM75 37.5H84.375V56.25H75V37.5ZM84.375 75V84.375H103.125V65.625H75V75H84.375ZM65.625 56.25H75V65.625H65.625V56.25ZM84.375 131.25H103.125V150H84.375V131.25ZM65.625 131.25H75V150H65.625V131.25ZM84.375 103.125H93.75V112.5H84.375V103.125ZM84.375 28.125V9.375H75V0H65.625V37.5H75V28.125H84.375ZM112.5 131.25H121.875V150H112.5V131.25ZM112.5 112.5H131.25V121.875H112.5V112.5ZM103.125 121.875H112.5V131.25H103.125V121.875ZM93.75 112.5H103.125V121.875H93.75V112.5ZM131.25 93.75V103.125H140.625V112.5H150V93.75H140.625H131.25ZM140.625 121.875H131.25V150H150V131.25H140.625V121.875ZM93.75 93.75V103.125H121.875V84.375H103.125V93.75H93.75ZM112.5 65.625V75H131.25V84.375H150V65.625H131.25H112.5Z" fill="white"/>
</g>
<defs>
<clipPath id="clip0_7_90">
<rect width="150" height="150" fill="white"/>
</clipPath>
</defs>
</svg>
